<svg height="354.8845" viewBox="0 0 499.27 354.8845" width="499.27" xmlns="http://www.w3.org/2000/svg"><path d="m472.6908 177.1728c-10.0433-19.1892-29.7346-32.6194-50.7615-34.6174-20.6-1.9552-40.9852 6.3572-61.66 5.6734-34.03-1.1112-62.3647-25.6532-92.7724-41.4767-42.0323-21.8816-93.2318-27.2665-136.589-8.3445-43.3674 18.9224-76.5423 64.0314-76.6706 112.6667-.0641 21.9136 6.1115 44.4577-.2778 65.3563-5.9618 19.499-21.7961 33.9229-31.1556 51.9474-16.5073 31.786-9.5625 74.6837 16.0693 99.183l396.9458-1.0257c20.5354-23.559 26.7-59.4585 15.2466-88.8832-4.2845-11.0156-10.8874-21.4649-11.5926-33.3139-1.4744-24.7878 22.1915-42.3742 33.4528-64.32a69.7724 69.7724 0 0 0 -.235-62.8454z" fill="#d4def4" transform="translate(-.73 -75.5613)"/><path d="m458.3416 314.6165c-7.1906-15.61-21.8816-28.0678-24.1146-45.1094-2.4574-18.6763 10.834-35.3866 16.1227-53.4646a64.5063 64.5063 0 0 0 -61.1467-82.6115c-27.587-.3313-53.8278 16.9026-81.19 13.3661-28.8371-3.7289-49.2657-28.8051-72.8674-45.7825-43.6248-31.4014-106.9083-34.7346-151.334-4.4768s-64.213 93.7122-41.1775 142.2622c9.5732 20.1721 25.995 40.419 20.4712 62.0442-4.84 18.9327-24.5954 29.6705-35.4294 45.9321a53.8789 53.8789 0 0 0 41.9041 83.6695l343.5881-2.3185c15.2252-15.5137 30.6855-31.348 40.6113-50.6974 9.9472-19.3173 13.6547-43.0687 4.5622-62.8134z" fill="#1db2aa" opacity=".51" transform="translate(-.73 -75.5613)"/><path d="m373.3688 241.1294h98.4779c2.8848-4.5515.235-8.8573-4.2524-11.86-4.4768-3.0023-10.8447-2.4147-15.1291.8654a21.7635 21.7635 0 1 0 -38.3569-3.7609c-.1923-4.605-6.25-7.4684-10.3211-5.2888-4.06 2.18-5.3742 7.8958-3.419 12.0734a16.9729 16.9729 0 0 0 -15.15-2.8528c-5.1075 1.539-10.1719 5.7486-11.8494 10.8237z" fill="#fcfcfc" transform="translate(-.73 -75.5613)"/><path d="m179.5223 193.8831h98.4777c2.8848-4.5515.2351-8.8573-4.2524-11.86-4.4767-3.0023-10.8446-2.4147-15.1291.8654a21.7635 21.7635 0 1 0 -38.3568-3.7609c-.1924-4.605-6.25-7.4684-10.3212-5.2888-4.06 2.18-5.3742 7.8958-3.419 12.0734a16.9729 16.9729 0 0 0 -15.15-2.8528c-5.1181 1.5497-10.1825 5.7593-11.8492 10.8237z" fill="#fcfcfc" transform="translate(-.73 -75.5613)"/><path d="m110.7149 124.3385h98.4779c2.8848-4.5515.235-8.8573-4.2524-11.86-4.4768-3.0023-10.8446-2.4147-15.1291.8654a21.7639 21.7639 0 0 0 -30.2474-30.0658 22.4567 22.4567 0 0 0 -8.1095 26.3049c-.1923-4.6049-6.25-7.4683-10.3211-5.2887-4.06 2.18-5.3742 7.8957-3.419 12.0733a16.9725 16.9725 0 0 0 -15.15-2.8527c-5.1075 1.5389-10.1826 5.7486-11.8494 10.8236z" fill="#fcfcfc" transform="translate(-.73 -75.5613)"/><path d="m10.41 332.2885h80.1542c2.35-3.7075.1923-7.212-3.4618-9.6587-3.6433-2.4467-8.8253-1.9659-12.3084.7052a18.299 18.299 0 0 0 -2.3185-22.2877 18.2734 18.2734 0 0 0 -22.2983-2.18 18.2771 18.2771 0 0 0 -6.6029 21.4115c-.15-3.75-5.0964-6.0794-8.3979-4.3058-3.3122 1.7736-4.3806 6.4213-2.7886 9.83a13.8333 13.8333 0 0 0 -12.33-2.3186c-4.156 1.2502-8.2909 4.6692-9.6478 8.8041z" fill="#fcfcfc" transform="translate(-.73 -75.5613)"/><path d="m490.3093 257.1239c.5022-.609.9616-1.2607 1.421-1.9125.4594-.6411.8975-1.3142 1.3249-1.998.8333-1.3782 1.656-2.7779 2.4146-4.2523.3847-.7373.7586-1.4852 1.1433-2.2117.3739-.7479.7479-1.4958 1.1218-2.2651q1.1379-2.2917 2.2651-4.5729c-5.7909-.7906-11.881-1.2607-17.6506.2457a24.1118 24.1118 0 0 0 -8.227 4.1135 22.3092 22.3092 0 0 0 -1.827 1.4958c-.5876.5236-1.1539 1.0578-1.7095 1.6134a35.3488 35.3488 0 0 0 -2.9382 3.4938 47.0757 47.0757 0 0 0 -7.7568 16.0264c1.453-.15 3.1946-.2884 4.637-.3953 1.4424-.1175 2.639-.16 3.0023-.1816 1.2287-.0534 2.404-.1389 3.5472-.2351 1.1539-.0961 2.2651-.2243 3.3442-.3846 1.0684-.171 2.1262-.3633 3.13-.5983.5022-.1175.9937-.2564 1.4852-.406.2457-.0748.4808-.15.7158-.2351.2458-.0748.4808-.16.7159-.2351a19.8589 19.8589 0 0 0 2.7138-1.1859 19.3907 19.3907 0 0 0 2.5429-1.5386 24.8761 24.8761 0 0 0 2.3613-1.9552c.3846-.3632.7585-.7479 1.1218-1.1646.3745-.3952.7377-.8119 1.101-1.2607z" fill="#88d3cc" transform="translate(-.73 -75.5613)"/><path d="m400.2935 424.3343a9.0476 9.0476 0 0 0 .8226-1.8911c.2458-.62.5129-1.41.8227-2.34.15-.47.3312-.9616.4915-1.5065.16-.5342.3312-1.1111.5022-1.72.641-2.4468 1.56-5.385 2.3612-8.8574.203-.8654.3846-1.7736.5876-2.6924.1923-.93.374-1.8912.5877-2.8741.203-.983.4167-1.998.63-3.0344.1923-1.0471.406-2.1048.5984-3.2053.7479-4.3913 1.5172-9.1992 2.265-14.4026.748-5.2246 1.5386-10.8125 2.3827-16.7q.7052-4.4234 1.4851-9.0924c.5129-3.1092 1.1432-6.2825 1.8484-9.5091.3526-1.6134.7159-3.2481 1.1112-4.8935.1923-.8226.3846-1.6454.609-2.4787.2137-.8227.4274-1.6561.6731-2.4788.93-3.3228 2.0087-6.6671 3.1733-10.022.609-1.6667 1.2073-3.3228 1.8911-4.9468.3312-.8121.6624-1.624.9937-2.4254.3419-.8013.6944-1.5919 1.0363-2.3826l.5129-1.186c.1817-.3953.3633-.78.5449-1.1645.3633-.78.7159-1.5493 1.0792-2.3186.3846-.7586.7692-1.5065 1.1539-2.2651.3846-.7479.7585-1.4958 1.1645-2.233.3954-.7372.7907-1.4637 1.186-2.19.1923-.3632.3953-.7265.5983-1.0791s.406-.7159.609-1.0684c.406-.7052.8014-1.421 1.2181-2.1156s.8333-1.3782 1.25-2.0727c.2137-.3419.4167-.6838.63-1.015s.4381-.6625.6518-1.0044c.438-.6624.8654-1.3248 1.2928-1.9766.4167-.6624.8761-1.2928 1.3141-1.9339s.8762-1.2714 1.3035-1.9018c.8868-1.2394 1.763-2.4681 2.66-3.6541.4595-.5876.9082-1.1752 1.3569-1.7522s.8975-1.1539 1.3569-1.71c1.8164-2.2437 3.6114-4.3913 5.417-6.4106.9189-.9937 1.795-1.9873 2.7139-2.9169.4487-.47.8975-.94 1.3355-1.4.2244-.2244.4381-.4595.6624-.6838s.4488-.4488.6732-.6625l1.3142-1.3142c.438-.438.8547-.8654 1.2928-1.2714.8761-.812 1.7415-1.6134 2.5749-2.3826 3.3976-3.0557 6.56-5.7162 9.445-7.8851 1.453-1.0791 2.7779-2.1048 4.0494-2.9916.63-.4488 1.2287-.8761 1.7949-1.2928.577-.3953 1.1433-.7586 1.6775-1.1 2.1048-1.41 3.7823-2.4254 4.8827-3.1626a8.3433 8.3433 0 0 0 1.6668-1.1646 8.2586 8.2586 0 0 0 -1.8591.8548c-1.1646.641-2.9168 1.5706-5.0857 2.8954-.5449.3312-1.1219.6731-1.7309 1.0471-.5876.3953-1.2073.8013-1.8484 1.2394-1.3035.8547-2.6711 1.8377-4.1562 2.8848-2.96 2.1155-6.2077 4.7225-9.6908 7.7461-.8654.7586-1.7415 1.56-2.639 2.3613-.4488.406-.8868.8333-1.3249 1.2607-.4487.4274-.8975.8654-1.3462 1.3035-.9189.8761-1.8057 1.8057-2.7352 2.7352s-1.8377 1.9125-2.778 2.9062c-.93 1.0043-1.827 2.062-2.7565 3.12-.94 1.0578-1.8377 2.18-2.7779 3.2908-.2351.2778-.47.5663-.6945.8441-.2244.2884-.4594.5769-.6838.8654-.46.577-.9189 1.1646-1.389 1.7629-.47.5876-.9082 1.2073-1.3676 1.8164-.4488.62-.8975 1.2394-1.3569 1.859-.4381.63-.8868 1.2715-1.3355 1.9125-.4381.6411-.9082 1.2822-1.3356 1.9446-.4381.6624-.8761 1.3249-1.3142 1.998-.2243.3312-.438.6731-.6624 1.0043l-.6411 1.0257c-.4167.6945-.8441 1.389-1.2714 2.0835-.4274.7051-.8227 1.421-1.2394 2.1368-.406.7159-.8441 1.4317-1.2394 2.169-.406.7372-.8013 1.4744-1.2073 2.2116s-.7907 1.4958-1.186 2.2544c-.3846.7586-.78 1.5172-1.1753 2.2865-.3632.78-.7265 1.56-1.1005 2.3506-.1816.3953-.3632.7906-.5555 1.1859-.171.3953-.3526.8014-.5236 1.1967-.3525.8013-.7051 1.6026-1.0577 2.4146-.3419.8121-.6731 1.6348-1.015 2.4468-.6945 1.6347-1.2928 3.3121-1.9125 5-1.1753 3.3976-2.2651 6.7952-3.2054 10.15-.2457.8334-.4594 1.6775-.6731 2.5108s-.4167 1.6668-.609 2.5-.3953 1.656-.5663 2.4788c-.1816.8227-.3739 1.6454-.5342 2.4574-.7052 3.2587-1.3248 6.4533-1.8163 9.5838-.5129 3.1306-.983 6.1756-1.4317 9.1352-.8121 5.93-1.5172 11.5284-2.2224 16.721-.6838 5.2033-1.3783 10.0006-2.0407 14.3919-.171 1.1-.3526 2.1582-.5235 3.2053-.1923 1.0364-.3846 2.0514-.5663 3.0343-.1923.983-.3526 1.9446-.5235 2.8741-.1817.93-.3419 1.827-.5235 2.6925-.6945 3.4724-1.5172 6.4213-2.0515 8.9-.15.62-.2884 1.1967-.4273 1.7416s-.2778 1.0471-.406 1.5172-.2458.9082-.3526 1.3142-.2137.7586-.31 1.0791a10.3333 10.3333 0 0 0 -.4795 2.031z" fill="#fff" transform="translate(-.73 -75.5613)"/><path d="m481.27 295.5556c1.2394-.0855 2.4468-.203 3.6327-.3526 1.1753-.1389 2.3719-.2884 3.6006-.438 1.1967-.1389 2.4254-.2458 3.6541-.3312.62-.0428 1.2287-.0748 1.8591-.0962.63-.0107 1.2714-.0107 1.9125 0-1.7736-1.9873-3.75-4.3165-5.9619-6.432a40.8436 40.8436 0 0 0 -3.4938-3.0343c-.609-.47-1.2287-.8868-1.859-1.3035a19.582 19.582 0 0 0 -1.9339-1.1112 21.49 21.49 0 0 0 -4.1348-1.592 27.0805 27.0805 0 0 0 -4.4234-.812 24.0464 24.0464 0 0 0 -8.4513.7906 20.2236 20.2236 0 0 0 -2.2758.8121 20.6064 20.6064 0 0 0 -2.0086.9829 21.8711 21.8711 0 0 0 -3.28 2.2865 34.4472 34.4472 0 0 0 -2.5108 2.4467c-.3739.406-.7159.8121-1.0471 1.2074s-.6517.7692-.9722 1.1325c1.2821.2992 2.7565.6517 3.9852 1.015 1.2394.3633 2.2117.6732 2.5215.78 2.0408.6945 3.9533 1.3569 5.78 1.9232 1.827.5769 3.5579 1.0471 5.2674 1.421a33.5038 33.5038 0 0 0 5.0216.7372 32.8125 32.8125 0 0 0 5.1179-.0321z" fill="#88d3cc" transform="translate(-.73 -75.5613)"/><path d="m481.484 289.7326a6.3592 6.3592 0 0 0 -1.998-.8013c-.32-.0961-.6838-.2137-1.0791-.3312-.3953-.1069-.8227-.203-1.2821-.32-.9189-.2137-1.9767-.47-3.1413-.6518-.5876-.0961-1.2073-.1923-1.8484-.2991-.641-.0962-1.3035-.1389-1.9979-.2137-1.389-.15-2.8634-.1923-4.434-.2351-1.5493.0107-3.1733.0748-4.8721.2244-1.6881.15-3.4083.406-5.1819.7372-1.7523.3633-3.44.812-5.0751 1.3142-1.6027.5129-3.1412 1.09-4.5943 1.6881-1.41.6517-2.7672 1.2715-3.9959 1.9552-.609.342-1.1967.6625-1.7523 1.0044-.5449.3525-1.0791.6838-1.5813 1.0043-1.015.63-1.8484 1.3142-2.607 1.88-.3739.2884-.7265.5555-1.0364.812-.31.2671-.5769.5235-.8226.7479-.9723.9082-1.4745 1.4638-1.389 1.5493.0962.1068.7265-.2992 1.8377-1.0257.2778-.1817.5876-.3847.9189-.609.3419-.2137.7158-.4488 1.1111-.7052.8014-.5022 1.6989-1.0578 2.7139-1.6454.5128-.2778 1.0471-.577 1.6133-.8868.5556-.31 1.1646-.5876 1.7736-.8975 1.2074-.63 2.5857-1.1753 3.9853-1.7736.7052-.2885 1.4424-.5556 2.201-.812s1.5279-.5129 2.3185-.7586c.78-.2458 1.6027-.47 2.4361-.6731.8333-.2137 1.6667-.406 2.5215-.5877s1.72-.31 2.5642-.438 1.6775-.2351 2.4894-.32c.8121-.0962 1.6241-.15 2.4254-.203.7906-.0535 1.5706-.0855 2.3185-.1069 1.5065-.0214 2.96-.0214 4.3165.0641.6731.0428 1.3249.0534 1.9446.1175.62.0534 1.218.1175 1.7949.1817 2.2972.2671 4.1456.5769 5.4063.78 1.2928.2451 1.998.3626 1.998.2344z" fill="#fff" transform="translate(-.73 -75.5613)"/><path d="m462.6688 314.9264c.2885-.1069.5663-.2137.8548-.32.2778-.1069.5662-.2137.8547-.3206.5663-.2137 1.1219-.438 1.6775-.6731 1.09-.4594 2.2009-.9188 3.3228-1.4.5556-.2244 1.1112-.4595 1.6774-.6732.577-.2137 1.1539-.4273 1.7309-.63s1.1646-.406 1.7523-.5984q.8974-.2724 1.827-.5128c-2.18-1.5386-4.637-3.3549-7.2974-4.8828a37.1842 37.1842 0 0 0 -4.1028-2.1048c-.7052-.31-1.4-.5556-2.1156-.8013a16.1346 16.1346 0 0 0 -2.1261-.577 21.1586 21.1586 0 0 0 -4.3806-.47 23.918 23.918 0 0 0 -4.4554.406c-.7266.1389-1.4531.31-2.169.5129s-1.3889.4487-2.0514.7051a23.2231 23.2231 0 0 0 -3.7181 1.8591 24.25 24.25 0 0 0 -1.9873 1.421 19.3125 19.3125 0 0 0 -1.6668 1.5172c-.5128.5129-.9723 1.0364-1.41 1.56-.4167.5235-.8014 1.0578-1.1539 1.5813s-.6731 1.0471-.9723 1.5706c-.2885.5235-.5449 1.0364-.8013 1.5172-.4808 1.015-.93 1.9552-1.3249 2.8421.6517-.0214 1.3463-.0534 2.0514-.0748.7052-.0107 1.4-.0214 2.0407-.0107 1.2928.032 2.3079.0748 2.6284.0961 1.0577.0641 2.0835.1389 3.0985.203.9936.0641 1.9766.1175 2.9275.16 1.9018.0854 3.6967.1068 5.417.0213a30.8415 30.8415 0 0 0 9.872-1.9234z" fill="#88d3cc" transform="translate(-.73 -75.5613)"/><path d="m461.3867 309.0393a6.1242 6.1242 0 0 0 -2.1048-.2671c-.3312-.0107-.7052-.0214-1.1112-.0428-.406 0-.8441.0107-1.3142.0214-.94.0321-2.0194.0534-3.1946.1817-.5876.0641-1.1967.1389-1.8377.203-.6411.0748-1.2928.203-1.9766.3205-.6839.1068-1.4.2457-2.1049.4167-.7158.1709-1.4424.3526-2.2009.5449-.748.2137-1.5065.4381-2.2865.6945-.7693.2564-1.5493.5342-2.3292.8334-.7906.2991-1.5813.63-2.3933.9829-.8013.3526-1.592.7373-2.3933 1.1433-.7906.4167-1.5813.844-2.34 1.2928-.7479.4487-1.4744.9081-2.19 1.3783-1.4317.93-2.7352 1.9231-3.9639 2.9061-.2992.2564-.5984.5022-.8975.7479-.2885.2458-.5663.5022-.8441.7479-.5556.5022-1.0791.9937-1.5706 1.4959-.5022.5021-.9936.9615-1.421 1.453s-.8441.9616-1.2287 1.421c-.3953.4488-.7586.8868-1.09 1.3249-.32.438-.62.844-.8975 1.2287s-.5449.7479-.7693 1.09c-.2137.3419-.4167.6624-.5983.9509-.6838 1.1539-1.0043 1.8377-.8975 1.9018.1175.0748.62-.4915 1.4745-1.5172.438-.5022.9723-1.1218 1.5919-1.8377.63-.7052 1.3249-1.5065 2.1583-2.3506.4167-.4167.8441-.8547 1.2928-1.3142.4487-.4487.94-.8975 1.453-1.3569 1.0151-.94 2.1476-1.859 3.3442-2.8207.62-.4594 1.25-.93 1.9019-1.3889s1.3142-.93 2.03-1.3676c.7052-.4488 1.421-.8868 2.1582-1.3249.3633-.2137.7372-.4273 1.1112-.641.3846-.203.7693-.4167 1.1539-.6091 1.5706-.7906 3.0985-1.5065 4.6477-2.1048 1.5386-.609 3.0023-1.1432 4.4661-1.5813 1.4637-.4167 2.8207-.8227 4.1455-1.09.6624-.1389 1.2928-.2884 1.9125-.3953s1.2074-.203 1.7736-.2991c1.1219-.1817 2.1583-.31 3.0664-.4168s1.6882-.1816 2.3186-.2457 1.1218-.1175 1.453-.171c.3527-.032.5237-.0747.5023-.1388z" fill="#fff" transform="translate(-.73 -75.5613)"/><path d="m452.2088 342.1822c1.0151-.63 2.0194-1.2714 2.9916-1.9339.4808-.3312.9616-.6624 1.4531-1.0043.4915-.3312.983-.6624 1.4744-1.0043.4915-.3205.983-.6518 1.4852-.983.5022-.3205 1.0257-.6411 1.5385-.9509.5236-.31 1.0471-.62 1.5813-.9189s1.1005-.5769 1.6561-.8547c-2.4574-1.0364-5.246-2.2971-8.1629-3.2374a36.0807 36.0807 0 0 0 -4.4554-1.1966c-.7479-.16-1.4851-.2564-2.233-.3419a16.9453 16.9453 0 0 0 -2.19-.1282 22.5988 22.5988 0 0 0 -8.6223 1.7415c-.6838.2885-1.3569.5984-1.998.94s-1.25.7158-1.8484 1.1111c-.5876.3954-1.1646.8121-1.7095 1.2394s-1.0364.8762-1.5172 1.3356a20.8734 20.8734 0 0 0 -1.624 1.795 21.27 21.27 0 0 0 -1.2928 1.827 17.4735 17.4735 0 0 0 -1.0257 1.827c-.2991.609-.5662 1.1966-.7906 1.7843a33.1069 33.1069 0 0 0 -1.0791 3.387c-.2564 1.1-.4915 2.1155-.7159 3.0664 1.2714-.31 2.7352-.6838 3.9959-.9189 1.2715-.2457 2.2758-.406 2.5963-.4594 2.1156-.32 4.1028-.62 5.9833-.9509s3.6327-.7159 5.2994-1.1646a35.6347 35.6347 0 0 0 4.7546-1.6561c.7586-.32 1.4958-.7051 2.2437-1.0791.737-.3844 1.4742-.8118 2.2114-1.2712z" fill="#88d3cc" transform="translate(-.73 -75.5613)"/><path d="m449.6553 336.808a5.942 5.942 0 0 0 -2.1048.1816q-.497.08-1.09.1923c-.3954.0748-.8121.1817-1.2715.2885-.9082.2244-1.9659.4594-3.0664.8441-.5556.1816-1.1325.3739-1.7416.5769-.609.2137-1.2073.47-1.859.7159a43.4074 43.4074 0 0 0 -3.9853 1.8484c-.6838.3633-1.3783.7479-2.0728 1.1646s-1.41.8547-2.1155 1.3142c-1.4.94-2.8313 1.9659-4.231 3.0985a57.7171 57.7171 0 0 0 -7.2119 7.1265c-.9937 1.2073-1.9232 2.3505-2.7139 3.4937-.3953.5663-.8013 1.1-1.1539 1.6347-.3419.5343-.6731 1.0578-.9936 1.5493-.6411.983-1.1326 1.9125-1.5813 2.7245-.2244.406-.4274.78-.609 1.1325-.171.3633-.3206.6838-.4595.983-.5342 1.1753-.78 1.8484-.6624 1.9018.2564.1175 1.6988-2.3506 4.3913-6.1221.3419-.47.6945-.9616 1.0684-1.4638.374-.5128.8013-1.015 1.218-1.5492.8227-1.0792 1.795-2.18 2.7887-3.3336a69.1378 69.1378 0 0 1 7.1478-6.8914 61.17 61.17 0 0 1 8.1308-5.5772c1.3355-.7159 2.5856-1.4 3.8143-1.9446.62-.2778 1.1967-.5449 1.7736-.78.577-.2243 1.1326-.4487 1.6561-.6624.5342-.203 1.0364-.3953 1.5172-.5663s.9509-.3312 1.3783-.47q1.2981-.4326 2.2117-.7051c1.2288-.3848 1.8806-.5985 1.8272-.7053z" fill="#fff" transform="translate(-.73 -75.5613)"/><path d="m437.7208 373.4874c1.3676-2.3078 2.5-4.7118 3.6434-7.1371a80.0144 80.0144 0 0 1 3.7716-7.1372 76.1379 76.1379 0 0 0 -8.6864.2671 32.95 32.95 0 0 0 -4.4768.78 19.6686 19.6686 0 0 0 -2.1262.6624 16.741 16.741 0 0 0 -1.9979.8548 22.96 22.96 0 0 0 -6.9021 5.5024 27.8863 27.8863 0 0 0 -4.53 7.34 26.1643 26.1643 0 0 0 -1.87 8.7077c-.0641 1.3035-.0213 2.5322.0107 3.6754.0534 1.1646.1389 2.2438.171 3.2588 1.1325-.6091 2.436-1.3356 3.5686-1.9019 1.1539-.5662 2.062-1.015 2.34-1.1539.9616-.4487 1.8912-.8974 2.7993-1.3462.8975-.4488 1.763-.9082 2.5963-1.3676a39.473 39.473 0 0 0 4.6264-2.97 26.2229 26.2229 0 0 0 7.0621-8.0347z" fill="#88d3cc" transform="translate(-.73 -75.5613)"/><path d="m433.1586 368.4444c-.0855-.0855-.7265.2992-1.827 1.0791-.2778.203-.577.4167-.9082.6624-.3205.2458-.6624.5343-1.0364.8334-.7265.609-1.5813 1.2928-2.4467 2.1262-.4381.406-.8975.8334-1.3676 1.2821-.4808.4488-.94.951-1.4317 1.4531-.9937.9936-1.9766 2.1369-3.0237 3.3122a92.9232 92.9232 0 0 0 -6.1542 8.1415c-1.9766 3.0023-3.6861 5.94-5.1285 8.6329-.6838 1.3676-1.3889 2.6391-1.9231 3.8784-.2885.6091-.5877 1.186-.8334 1.763-.1175.2884-.2351.5662-.3526.844s-.2351.5449-.3526.8014c-.235.5128-.438 1.015-.63 1.4958-.1817.4808-.3633.9295-.5236 1.3462s-.32.812-.4487 1.1753c-.1175.374-.2351.7052-.3312 1.0043-.3953 1.2074-.5556 1.8912-.4488 1.9339.2458.0962 1.4638-2.4147 3.5258-6.4534.2671-.5021.545-1.0364.8121-1.5919.2778-.5556.5983-1.1112.9188-1.71.2992-.5984.63-1.2074.983-1.8378.1816-.31.3525-.63.5342-.9509s.3526-.6517.5342-.983c.7586-1.3141 1.56-2.6924 2.4361-4.1134.8547-1.4211 1.7843-2.8741 2.7565-4.3593 1.9766-2.9382 4.0173-5.6734 5.9405-8.0987.9937-1.1859 1.9125-2.34 2.8528-3.3656.4594-.5128.8867-1.0257 1.3248-1.4958s.8654-.9188 1.2715-1.3462c3.2583-3.3544 5.47-5.2669 5.2777-5.4592z" fill="#fff" transform="translate(-.73 -75.5613)"/><path d="m442.9027 239.4413c.545-1.4745 1.186-2.9062 1.8805-4.3379.3526-.7158.7052-1.4424 1.0791-2.1689.3847-.7158.7693-1.4317 1.1646-2.1582s.7907-1.4531 1.186-2.19c.406-.7266.8227-1.4638 1.2287-2.2117s.8227-1.4958 1.2287-2.2544c.4167-.7479.8334-1.5172 1.2394-2.2865a72.346 72.346 0 0 1 4.5942 7.49 32.1632 32.1632 0 0 1 1.8377 4.2737 20.4251 20.4251 0 0 1 .6411 2.233 16.6857 16.6857 0 0 1 .4167 2.2544c.0962.748.16 1.5279.1817 2.2972.0213.78 0 1.5706-.0321 2.3719a33.0845 33.0845 0 0 1 -.609 4.7973 33.5211 33.5211 0 0 1 -1.2287 4.637 36.1539 36.1539 0 0 1 -1.6775 4.22c-.406.8334-.812 1.6241-1.25 2.3613-.4274.7372-.8868 1.421-1.3249 2.0727a32.0029 32.0029 0 0 1 -2.7459 3.4725c-.9082 1.0364-1.8591 1.9338-2.7245 2.7886-.8868.8441-1.7308 1.6133-2.4894 2.3612-.3526-1.2714-.7373-2.7672-1.1112-4.028-.3846-1.2714-.6945-2.2651-.7906-2.5749a48.6373 48.6373 0 0 1 -2.5963-11.6994 25.0116 25.0116 0 0 1 -.0428-2.8314 26.3409 26.3409 0 0 1 .2885-2.8527 27.9146 27.9146 0 0 1 .62-2.9489c.2881-1.0045.63-2.0302 1.036-3.0879z" fill="#88d3cc" transform="translate(-.73 -75.5613)"/><path d="m450.2322 238.9284c.1282 0 .1923.812.2244 2.2758 0 .3633.0107.7693.0213 1.218 0 .4381-.032.9189-.0427 1.4424-.0534 1.0257-.0534 2.2117-.171 3.5045-.0427.6411-.0961 1.3249-.1389 2.03-.0534.7052-.15 1.4211-.2137 2.18-.1175 1.5172-.3525 3.12-.5556 4.7866-.2243 1.6775-.4914 3.43-.812 5.214-.2884 1.8057-.6517 3.6327-1.0471 5.5025-.1923.93-.406 1.8484-.62 2.7458-.2244.8868-.4381 1.763-.6518 2.6284-.2137.8547-.438 1.6988-.6731 2.5108s-.438 1.6134-.6731 2.3827c-.2458.7585-.47 1.5065-.7052 2.233-.2243.7265-.4487 1.4317-.6838 2.0941s-.4381 1.3142-.6731 1.9232c-.2244.609-.4488 1.1966-.6624 1.7629-.3954 1.1325-.8655 2.0941-1.2181 2.97-.1816.438-.3525.844-.5128 1.2073-.1817.3633-.3419.6945-.4915.983-.15.2991-.2885.5555-.406.78s-.2244.4167-.31.5663c-.1816.2992-.2991.4488-.3525.4167-.2565-.1175.7051-2.8527 2.1155-7.3829.1709-.5663.3525-1.1646.5449-1.7843s.3739-1.2714.577-1.9446c.2137-.6731.406-1.3676.5983-2.0941s.406-1.4637.62-2.233c.203-.7693.406-1.56.5983-2.3826.203-.8121.4167-1.6348.63-2.49.2031-.8547.4061-1.7309.6091-2.607.2137-.8761.4167-1.7843.609-2.7031.7586-3.6861 1.41-7.244 1.9552-10.5348.1175-.8334.2458-1.6347.374-2.4147s.2457-1.5492.3312-2.2864c.1068-.7373.203-1.4745.2991-2.1583q.1283-1.0418.2565-1.9873.24-1.9392.4167-3.4617c.1389-1.0257.2457-1.9018.3419-2.6177.2142-1.4639.3531-2.2755.492-2.2755z" fill="#fff" transform="translate(-.73 -75.5613)"/><path d="m416.7794 270.3939c.31-1.5278.6945-3.0664 1.1326-4.6156.4594-1.5279.9616-3.0771 1.4958-4.6584.5449-1.56 1.09-3.1519 1.6454-4.7439.577-1.592 1.1432-3.2267 1.6774-4.9041a73.889 73.889 0 0 1 5.77 6.6564 31.3937 31.3937 0 0 1 2.5215 3.9212c.374.6838.6945 1.3782.9936 2.0834a19.939 19.939 0 0 1 .7907 2.1476 23.6618 23.6618 0 0 1 .93 4.5943c.0427.3953.0748.7906.1069 1.1966s.0641.812.0747 1.218c.0428.8121.0428 1.624.0321 2.4361a38.8669 38.8669 0 0 1 -.4381 4.7759 41.7642 41.7642 0 0 1 -.9509 4.4447 33.8 33.8 0 0 1 -1.795 4.808c-.3419.7158-.6838 1.41-1.0363 2.0514-.3526.6517-.7266 1.2714-1.09 1.8484-.7373 1.1753-1.4958 2.2437-2.2117 3.2266-.1923.2458-.374.4809-.5556.7266-.1816.235-.3526.47-.5235.7051-.3419.4595-.6731.9082-.983 1.3463-.5663-1.1967-1.2073-2.607-1.7949-3.7929s-1.0578-2.1156-1.1967-2.404c-1.015-1.9339-1.9446-3.8144-2.7031-5.6521a36.764 36.764 0 0 1 -1.8271-5.4918 27.39 27.39 0 0 1 -.7051-5.6734 26.6764 26.6764 0 0 1 .1389-3.0236c.1168-1.0258.2664-2.1156.5014-3.2268z" fill="#88d3cc" transform="translate(-.73 -75.5613)"/><path d="m423.9273 268.6631c.1282-.0214.32.7585.5876 2.2009.0641.3633.1389.7586.2244 1.1967.0748.438.1282.9188.203 1.4317.1282 1.0257.31 2.19.406 3.4831.0641.6517.1389 1.3248.203 2.03.0748.7052.0962 1.4424.15 2.19.032.374.0534.7586.0748 1.1539s.0427.7906.0641 1.1966c.0321.8014.0748 1.6347.1068 2.4788.0855 3.387.1069 7.0838-.0427 10.8981-.0534.9509-.0855 1.9018-.15 2.8207-.0534.93-.1389 1.827-.203 2.7138s-.1389 1.7629-.2244 2.607-.1816 1.6668-.2671 2.4788c-.1068.8013-.203 1.5813-.2991 2.34-.0534.3739-.1069.7479-.16 1.1112s-.1068.7265-.1709 1.0791c-.1176.7052-.2031 1.3889-.3313 2.03-.0641.32-.1282.6411-.1923.94-.0534.31-.1068.6091-.16.9082-.1923 1.186-.47 2.2331-.6838 3.1626-.1069.4594-.1924.8975-.2992 1.2928s-.2137.7479-.31 1.0684c-.1923.6411-.3525 1.1326-.4808 1.4638-.1175.3312-.2137.5021-.2778.4808s-.0854-.2137-.0748-.5663c.0214-.3525.0748-.8654.16-1.5278s.1816-1.4745.2991-2.4147c.1283-.94.2779-1.998.4274-3.184.0748-.5876.1389-1.218.2351-1.859s.15-1.3249.2243-2.03c.0962-.6944.15-1.4317.2351-2.18.0748-.7586.15-1.5278.2351-2.3185.2564-3.1946.5342-6.7205.6838-10.5027.0854-1.8805.1175-3.74.1389-5.5345.0427-1.7843.032-3.5472.032-5.214-.032-1.6668-.0213-3.2694-.0961-4.7759-.0214-.7479-.0107-1.4745-.0428-2.1689-.032-.7052-.0641-1.3783-.0854-2.0194-.1069-2.607-.203-4.69-.2672-6.1435-.0321-1.4738-.0107-2.2965.1282-2.3178z" fill="#fff" transform="translate(-.73 -75.5613)"/><path d="m393.53 318.2172a68.75 68.75 0 0 1 .1389-9.7014c.2137-3.3122.5343-6.7312.7266-10.2463a76.4134 76.4134 0 0 1 7.2867 4.9361 31.9026 31.9026 0 0 1 3.44 3.1413c.5342.5555 1.015 1.1539 1.5065 1.7629a18.6828 18.6828 0 0 1 1.3248 1.88 25.1982 25.1982 0 0 1 2.0835 4.199 33.2421 33.2421 0 0 1 1.4638 4.6263 33.8334 33.8334 0 0 1 .8333 4.7332 35.19 35.19 0 0 1 .2565 4.5408c-.0107.93-.0428 1.8164-.1283 2.6711-.0748.8548-.203 1.6668-.32 2.4467q-.1923 1.17-.4487 2.2438t-.5449 2.0514c-.4061 1.3142-.8441 2.5215-1.2715 3.6327-.4594 1.1218-.8761 2.1582-1.2607 3.13-.8548-.9937-1.8378-2.1689-2.7139-3.13-.8868-.9723-1.5919-1.7309-1.8056-1.966-1.4958-1.5813-2.8955-3.0984-4.1135-4.6583-.62-.78-1.1967-1.5493-1.7416-2.34s-1.0364-1.6027-1.4958-2.4253a24.4864 24.4864 0 0 1 -1.2394-2.5536 26.5882 26.5882 0 0 1 -.9509-2.7352 30.9391 30.9391 0 0 1 -1.0258-6.2392z" fill="#88d3cc" transform="translate(-.73 -75.5613)"/><path d="m399.9836 314.6165c.1175-.0534.5129.6625 1.1539 1.9873.16.3312.3312.7052.5235 1.1005.1817.406.3633.8548.5663 1.3356s.406.9829.63 1.5278.4594 1.1219.6838 1.7416c.235.609.47 1.25.7265 1.9125s.4594 1.3676.7265 2.0835c.5343 1.4317 1.0044 2.9916 1.5172 4.5942 1.0044 3.2374 2.0087 6.7526 2.8848 10.4066.8548 3.6541 1.4852 7.1051 1.9232 10.2249.1817 1.56.3846 3.0344.47 4.4127.0428.6945.1175 1.3569.1389 1.9873.0214.641.0428 1.25.0534 1.8377.0534 1.1646.0107 2.2117-.0107 3.13-.0107.4594-.0213.8868-.0427 1.2821-.0321.3954-.0641.748-.0962 1.0685-.1282 1.2821-.2564 1.9872-.3846 1.9766-.2778-.0214-.2991-2.8528-.7159-7.447-.0534-.577-.1068-1.1753-.1709-1.8057s-.171-1.2821-.2458-1.9552c-.1389-1.3569-.3953-2.7993-.62-4.3379-.5129-3.0557-1.1967-6.4426-2.03-10.0433-.8654-3.6006-1.8377-7.0623-2.7245-10.2783-.2564-.7907-.47-1.5813-.6838-2.3506s-.438-1.5172-.6731-2.233c-.2137-.7266-.4274-1.4317-.63-2.0942q-.3206-1.01-.609-1.9231c-.3846-1.2287-.7693-2.3613-1.0684-3.3336-.31-.9936-.577-1.8377-.7907-2.5428-.4269-1.3992-.6406-2.2005-.5017-2.2647z" fill="#fff" transform="translate(-.73 -75.5613)"/><path d="m385.7414 365.7947c-.1924-.6411-.374-1.2715-.5343-1.9232s-.3205-1.3035-.4594-1.9659c-.2885-1.3142-.5342-2.6925-.7906-4.0708-.5129-2.7886-1.0151-5.6734-1.6881-8.7291a78.4167 78.4167 0 0 1 8.2376 3.013 35.2922 35.2922 0 0 1 4.0814 2.1476c.6625.3953 1.2608.844 1.87 1.2928a17.239 17.239 0 0 1 1.6988 1.4424 22.0118 22.0118 0 0 1 2.9382 3.3976 28.1559 28.1559 0 0 1 4.9469 12.1909 22.9346 22.9346 0 0 1 -.47 8.74 35.314 35.314 0 0 1 -1.0685 3.3869c-.4167 1.0364-.8013 1.9873-1.1646 2.8848-.8654-.9295-1.8911-2.0193-2.7886-2.8954-.9081-.8762-1.6454-1.5493-1.88-1.7629a72.2411 72.2411 0 0 1 -8.0667-7.9492c-.5449-.6731-1.0578-1.3463-1.5279-2.0407q-.7052-1.0578-1.3142-2.18a25.2777 25.2777 0 0 1 -1.1111-2.3612c-.332-.8223-.6312-1.6881-.9089-2.6176z" fill="#88d3cc" transform="translate(-.73 -75.5613)"/><path d="m391.372 362.1727c.0962-.0641.63.4914 1.5065 1.5492.2137.2671.4594.5556.7159.8868s.5128.6945.7906 1.0791c.5556.78 1.218 1.6561 1.8484 2.6711.32.5022.6624 1.0257 1.015 1.5813s.6732 1.1433 1.0257 1.7416c.7159 1.1966 1.3783 2.5215 2.0942 3.9105a63.01 63.01 0 0 1 3.6433 9.306 52.9292 52.9292 0 0 1 1.8805 9.6587c.0534.7479.1175 1.4852.15 2.201s.0534 1.41.0427 2.0728c0 .6731 0 1.3142-.032 1.9445-.0428.62-.0748 1.2181-.1282 1.7843a29.454 29.454 0 0 1 -.406 3.0451c-.0855.4488-.15.8654-.2351 1.2394q-.1441.561-.2564 1.0257c-.3419 1.2287-.5876 1.8911-.7159 1.8591-.1389-.0321-.0854-.748.0321-2.0087.1068-1.2608.2778-3.0771.3205-5.31.0107-.5556.0107-1.1433.0107-1.7523s-.0428-1.2394-.0641-1.9018c-.0428-1.3142-.1923-2.7032-.3526-4.1776-.1816-1.4638-.4487-2.9916-.7693-4.5622-.3312-1.5813-.7265-3.1946-1.2073-4.84a76.25 76.25 0 0 0 -3.44-9.1138c-.6517-1.3676-1.25-2.6818-1.9018-3.8784-.32-.5984-.609-1.1967-.9188-1.7523s-.609-1.09-.8975-1.592c-2.3087-4.0498-3.9862-6.5282-3.7511-6.6671z" fill="#fff" transform="translate(-.73 -75.5613)"/><path d="m192.4824 253.6729c-5.9832-2.3506-12.7358-2.6391-19.3814-2.9062 1.4744 5.5345 2.97 11.1545 5.855 15.8343 2.8848 4.69 8.0133 8.27 13.0456 10.257a64.0966 64.0966 0 0 0 8.7505 2.7993 58.0315 58.0315 0 0 0 7.2334 1.2607c-.4167-2.7565-1.1967-6.6136-1.3356-7.3188a43.5212 43.5212 0 0 0 -1.795-6.635 26.5683 26.5683 0 0 0 -2.7459-5.6093 19.8061 19.8061 0 0 0 -9.6266-7.682z" fill="#88d3cc" transform="translate(-.73 -75.5613)"/><path d="m272.0917 426.0118a8.6353 8.6353 0 0 0 -.5876-1.87c-.4488-1.2073-1.1005-2.97-2.0087-5.2246-.4915-1.1112-.9723-2.372-1.4958-3.75-.2564-.6944-.5235-1.41-.8013-2.1582-.2885-.7479-.5877-1.5172-.9082-2.3185-.63-1.6027-1.2928-3.3015-2.0087-5.1178-.6838-1.8164-1.4-3.75-2.1582-5.7589-3.12-8.0347-6.6671-17.64-10.7271-28.2709-.9616-2.6711-1.9873-5.4063-3.0344-8.1949-.5235-1.389-1.0577-2.7993-1.5813-4.231s-1.047-2.8741-1.5706-4.3272c-.5342-1.453-1.0791-2.9275-1.624-4.4019s-1.1112-2.97-1.6347-4.4768q-1.6186-4.5354-3.2908-9.1779c-1.1219-3.0984-2.1475-6.1862-3.216-9.2206-.5235-1.5172-1.0577-3.0236-1.5706-4.5195-.5022-1.4958-.9936-2.9809-1.4958-4.4233-.9936-2.9062-1.998-5.7162-3.0557-8.4086-1.0257-2.7032-2.1155-5.2888-3.3015-7.7248a77.9041 77.9041 0 0 0 -3.8036-6.8915 54.6838 54.6838 0 0 0 -4.3913-5.9618 68.4014 68.4014 0 0 0 -4.7866-5.214c-.812-.8013-1.6347-1.592-2.4467-2.34-.8013-.7693-1.6027-1.5065-2.3933-2.2223-3.1519-2.8741-6.197-5.3529-8.7612-7.6393q-1.9552-1.6989-3.622-3.1519c-.5556-.4809-1.09-.94-1.6027-1.389-.5021-.4488-.9722-.8761-1.421-1.2821-1.8056-1.6241-3.216-2.8634-4.1883-3.6968a7.4649 7.4649 0 0 0 -1.5385-1.1967 8.1825 8.1825 0 0 0 1.3035 1.4638c.8975.9188 2.233 2.2544 3.9639 3.9532q.6572.6411 1.3783 1.3463c.4915.4594 1.015.94 1.5492 1.4424 1.0791 1.0043 2.2651 2.0941 3.5259 3.2694 2.5108 2.3719 5.4917 4.9148 8.5795 7.8316.78.7265 1.5492 1.4745 2.34 2.2437.7906.7586 1.592 1.5493 2.3826 2.3506a68.3074 68.3074 0 0 1 4.6263 5.1926 51.2528 51.2528 0 0 1 4.199 5.855c1.2928 2.1049 2.4894 4.37 3.6434 6.7526 1.1432 2.3933 2.2009 4.9468 3.1946 7.6179 1.0364 2.66 2.0193 5.4491 2.9916 8.3552.4915 1.4424.983 2.9275 1.4745 4.4234.5128 1.4958 1.0363 3.0023 1.56 4.53 1.0684 3.0344 2.0941 6.1329 3.216 9.2313 1.1111 3.0985 2.2223 6.1649 3.3014 9.1886.5236 1.5172 1.1005 3.0023 1.6454 4.4768.5556 1.4744 1.1 2.9489 1.6347 4.4019s1.0685 2.8955 1.592 4.3272c.5342 1.421 1.0685 2.8313 1.6027 4.22 1.0684 2.7886 2.1048 5.5132 3.0878 8.1736 4.1455 10.5989 7.81 20.1614 11.08 28.1426.8013 1.998 1.56 3.91 2.2864 5.7161.374.8975.7373 1.7736 1.1005 2.6177s.7052 1.6668 1.0364 2.4574.6624 1.56.9723 2.2971c.2992.7373.5983 1.4531.8761 2.1369.5663 1.3676 1.1005 2.607 1.6454 3.6968 1.0044 2.2223 1.7736 3.9532 2.3185 5.1178a8.7987 8.7987 0 0 0 .9183 1.7313z" fill="#fff" transform="translate(-.73 -75.5613)"/><path d="m236.673 259.1433c-.2244-.78-.4915-1.5813-.7586-2.3506s-.5556-1.5386-.8548-2.3078c-.2885-.7586-.5983-1.5065-.9188-2.2758-.3206-.7586-.63-1.4958-.9509-2.2544-1.25-2.9809-2.5215-5.93-3.4938-8.9a75.127 75.127 0 0 0 -5.4491 6.8807 34.0316 34.0316 0 0 0 -2.3505 3.996 22.7284 22.7284 0 0 0 -.9082 2.1048 17.3425 17.3425 0 0 0 -.6945 2.1476 27.3791 27.3791 0 0 0 -.63 9.2954 39.0147 39.0147 0 0 0 1.998 9.0176 41.8442 41.8442 0 0 0 4.2738 8.5475c.3739.577.7479 1.1432 1.1218 1.6775.1817.2671.3633.5342.5449.7906.171.2671.3526.5235.5129.7693.1816.2457.3526.4914.5342.7372.1709.2457.3312.4915.4915.7265.3205.4808.63.94.9082 1.389.63-1.1646 1.3355-2.5536 1.9552-3.7289.63-1.1752 1.1219-2.1155 1.2714-2.4039.5236-.9723 1.0151-1.9232 1.4745-2.8848.2244-.4808.4487-.951.6517-1.4317.203-.47.3954-.94.5877-1.41.3739-.94.6945-1.88.9723-2.842a24.4842 24.4842 0 0 0 .6624-2.8528 26.3692 26.3692 0 0 0 -.9513-12.437z" fill="#88d3cc" transform="translate(-.73 -75.5613)"/><path d="m229.1191 257.6688c-.1282-.0107-.2778.7693-.438 2.2224-.0428.3632-.0855.7692-.1282 1.2073-.0321.4381-.0642.9188-.0855 1.4317-.0428 1.0471-.1389 2.2223-.15 3.5258-.0107.6625-.0214 1.3463-.0427 2.0621-.0107.7159.0106 1.4531.0106 2.233-.0106.7693 0 1.5706.0214 2.3827.0214.8226.0427 1.6774.0534 2.5322.1069 3.451.2351 7.2333.2778 11.09.0748 3.8678-.0107 7.3616-.1175 10.4387-.0107.7692-.0321 1.5065-.0641 2.2223s-.0427 1.4-.0534 2.0621c-.0214.6624-.0535 1.3035-.0535 1.9018-.0106.609-.0106 1.1859-.0213 1.7415-.0107.545-.0214 1.0792-.0107 1.5706s.0214.951.0214 1.3783c.0106.4381 0 .8334.0213 1.2074.0214.3632.0535.6945.0748.9936.0855 1.2074.1817 1.8591.2992 1.8377.1389-.0213.2351-.6944.374-1.9125.0641-.609.1282-1.3462.203-2.2223s.15-1.87.2457-2.97c.0427-.5555.0855-1.1325.1282-1.7415s.1069-1.2394.16-1.9018c.0213-.3313.0427-.6732.0748-1.0151.0213-.3419.0534-.6945.0748-1.0471.0427-.7158.1175-1.4637.1389-2.2223.2137-3.0664.3526-6.5495.2991-10.3852-.0213-3.8464-.1816-7.5966-.3739-11.0263-.0214-.8654-.0748-1.6988-.1176-2.5108s-.0854-1.624-.1068-2.3719c-.0321-.7586-.0855-1.5065-.1175-2.2224-.0214-.7158-.0428-1.3889-.0748-2.0407-.0962-2.6283-.171-4.7118-.2244-6.1756-.0741-1.4423-.1489-2.2757-.2985-2.2757z" fill="#fff" transform="translate(-.73 -75.5613)"/><path d="m258.7683 296.9339a48.1155 48.1155 0 0 0 .1816-9.7548c-.2243-3.4938-.7265-7.2654-1.3569-11.2827a59.0153 59.0153 0 0 0 -7.2333 4.9789 31.04 31.04 0 0 0 -3.3442 3.2587c-.5236.5876-.9937 1.2073-1.4531 1.827a17.2417 17.2417 0 0 0 -1.2607 1.9446 39.1026 39.1026 0 0 0 -3.5579 8.9107 46.59 46.59 0 0 0 -1.56 8.9429 28.969 28.969 0 0 0 .7586 8.8146c.2992 1.218.6731 2.34 1.015 3.3762.3847 1.0364.7479 1.998 1.0685 2.8955.8975-.94 1.9338-2.0407 2.8527-2.9382.94-.8975 1.6775-1.6027 1.9018-1.827 1.5706-1.4531 3.0558-2.8421 4.3806-4.2524a34.509 34.509 0 0 0 3.5472-4.2951 22.8366 22.8366 0 0 0 4.0601-10.5989z" fill="#88d3cc" transform="translate(-.73 -75.5613)"/><path d="m252.4431 293.0341c-.1175-.0641-.5128.6411-1.218 1.9232-.171.3205-.3633.6838-.5663 1.0684-.203.3953-.3953.8334-.62 1.2928-.438.93-.9936 1.9552-1.4958 3.1305-.2564.5877-.5449 1.186-.844 1.8057s-.5663 1.2821-.8655 1.9552c-.31.6624-.62 1.3569-.9188 2.0728s-.5983 1.4424-.93 2.19c-1.218 2.9916-2.4681 6.2289-3.5579 9.6373a74.5016 74.5016 0 0 0 -2.3185 9.6479c-.2137 1.4959-.4487 2.9062-.5449 4.231-.0534.6625-.1389 1.3035-.1709 1.9126-.0214.609-.0534 1.2073-.0748 1.7629-.0641 1.1218-.0214 2.1369-.0107 3.0236.0107.4381.0107.8548.0427 1.2287s.0641.7159.0962 1.0257c.1175 1.2394.2457 1.9125.3633 1.8911.2777-.032.2991-2.7779.7586-7.2119.0641-.5556.1175-1.1325.1816-1.7416s.1709-1.2394.2671-1.8911c.16-1.3035.4381-2.6924.6945-4.1562a92.5743 92.5743 0 0 1 2.4146-9.445c1.0685-3.3335 2.2544-6.5175 3.387-9.477.2885-.7373.5769-1.4638.8547-2.169s.5343-1.4.8227-2.062c.2778-.6625.5129-1.3249.7693-1.9553s.5022-1.2394.7372-1.8163c.93-2.3292 1.6882-4.2738 2.1583-5.6521.2457-.6838.4273-1.2287.5235-1.6133.1076-.3627.1289-.5765.0648-.6086z" fill="#fff" transform="translate(-.73 -75.5613)"/><path d="m272.6686 329.9593a75.4178 75.4178 0 0 0 1.7629-7.8851c.5236-2.6711 1.0364-5.4383 1.7843-8.2163a86.5843 86.5843 0 0 0 -8.1842 3.1626 35.3824 35.3824 0 0 0 -4.06 2.201c-.6518.406-1.2608.8547-1.8591 1.3035a17.239 17.239 0 0 0 -1.6988 1.4424 26.2851 26.2851 0 0 0 -5.2674 7.2867 28.8973 28.8973 0 0 0 -2.5856 8.2056 23.8056 23.8056 0 0 0 .3419 8.6437c.2671 1.218.62 2.34.9509 3.3762.3633 1.0471.7265 2.0087 1.0257 2.9169.9082-.93 1.9552-2.0087 2.8848-2.8955.94-.8868 1.6881-1.5813 1.9231-1.7949a63.8887 63.8887 0 0 0 8.1415-8.2377 26.8556 26.8556 0 0 0 4.84-9.5091z" fill="#88d3cc" transform="translate(-.73 -75.5613)"/><path d="m267.0914 326.6151c-.0962-.0534-.62.5128-1.4852 1.5813-.2137.2671-.4487.5662-.7158.8975-.2565.3312-.5022.7051-.7907 1.1-.5555.7907-1.2073 1.6882-1.8377 2.7139-.32.5128-.6517 1.0471-1.0043 1.6133-.3419.5663-.6624 1.1646-1.015 1.7736-.7159 1.2287-1.3783 2.575-2.0942 3.9746-.6838 1.421-1.3569 2.9169-1.9979 4.4875-.6518 1.5706-1.2608 3.216-1.8271 4.9041a77.8844 77.8844 0 0 0 -2.4681 9.6159c-.2457 1.4852-.5021 2.8955-.641 4.22-.0748.6624-.171 1.2928-.2137 1.9125-.0428.609-.0855 1.1966-.1175 1.7629-.0855 1.1219-.0855 2.1262-.0962 3.013 0 .4381-.0107.8547 0 1.2287q.0321.561.0641 1.0257c.0855 1.2287.1923 1.9018.31 1.8911.2778-.0213.3954-2.7565.9616-7.18q.1122-.8334.2244-1.7308c.0748-.5984.203-1.2287.31-1.88.1924-1.3035.5022-2.6818.7907-4.1455a97.0887 97.0887 0 0 1 2.5536-9.4237c1.1111-3.3121 2.3719-6.4426 3.6326-9.2526.6625-1.4 1.2608-2.7352 1.9125-3.9639.3206-.62.6091-1.2181.9189-1.7843s.609-1.1112.8975-1.624c2.2971-4.1238 3.9635-6.6026 3.7285-6.7308z" fill="#fff" transform="translate(-.73 -75.5613)"/><path d="m277.6475 366.5105a69.5429 69.5429 0 0 0 -.2778-7.9919c-.0961-1.3462-.1923-2.7138-.2671-4.1028s-.1282-2.7993-.1389-4.22a85.3 85.3 0 0 0 -7.3081 4.7225 35.3567 35.3567 0 0 0 -3.4724 2.9489 21.6483 21.6483 0 0 0 -1.5065 1.6347 17.9092 17.9092 0 0 0 -1.3142 1.72 21.4489 21.4489 0 0 0 -2.0407 3.825 26.5575 26.5575 0 0 0 -1.3463 4.1883 26.8606 26.8606 0 0 0 -.5342 8.3232c.0855.8226.2244 1.6026.374 2.3505s.3419 1.4638.5449 2.1369a23.399 23.399 0 0 0 1.5065 3.6968c.5556 1.1112 1.1753 2.1262 1.7416 3.0664.609.94 1.1966 1.795 1.7095 2.6177.6944-1.0471 1.4851-2.2651 2.2116-3.28s1.3249-1.8164 1.5065-2.0621q.9456-1.2341 1.8271-2.436c.5769-.8014 1.1218-1.5813 1.6454-2.3613a36.9722 36.9722 0 0 0 2.6817-4.637 25.2379 25.2379 0 0 0 1.0044-2.3612 22.9628 22.9628 0 0 0 .7372-2.4361 26.0155 26.0155 0 0 0 .7158-5.3425z" fill="#88d3cc" transform="translate(-.73 -75.5613)"/><path d="m271.2263 364.3736c-.1176-.032-.4915.6091-1.0792 1.8164-.15.2992-.31.63-.4808 1.0043-.16.3633-.3312.7693-.5022 1.2074-.3419.8654-.78 1.859-1.1432 2.97-.1923.5556-.3953 1.1326-.609 1.7416-.203.609-.374 1.2394-.577 1.9018-.4167 1.3142-.7372 2.7138-1.1218 4.21a82.1 82.1 0 0 0 -1.592 9.7014c-.0748.8655-.1389 1.71-.1816 2.5429s-.0748 1.6561-.0962 2.4681c-.0427 1.6134-.032 3.1626.0214 4.637.0961 1.4638.1389 2.8634.2991 4.1563.0748.6517.1175 1.2714.2137 1.87s.1817 1.1646.2778 1.7095c.15 1.09.374 2.0621.5556 2.9169.0962.4274.171.8227.2671 1.1859.1069.3633.203.6839.2885.983.3526 1.1753.609 1.8164.7265 1.7843.2778-.0641-.2137-2.7245-.5876-7.073-.0534-.5449-.1069-1.1112-.16-1.7095s-.0641-1.2181-.1068-1.8591c-.1069-1.2821-.0855-2.6711-.1389-4.1135-.0321-2.8955.1068-6.1115.3953-9.4877.16-1.6881.3953-3.3442.63-4.9362s.5128-3.13.8013-4.605c.16-.7372.3205-1.453.47-2.1475s.2992-1.3676.4808-2.0194c.16-.6517.2992-1.2821.47-1.88s.3313-1.1859.4915-1.7308c.6411-2.2117 1.2074-3.996 1.5813-5.2354.3529-1.2833.5452-1.9776.4064-2.0097z" fill="#fff" transform="translate(-.73 -75.5613)"/><path d="m184.3089 302.415c-.6091-.0321-1.2394-.0962-1.8484-.171-.62-.0641-1.2608-.1709-1.8912-.2778-1.2821-.2137-2.5856-.4808-3.9-.7479-2.6283-.5129-5.3208-1.0471-8.1308-1.4a83.1138 83.1138 0 0 1 5.8551-6.5175 34.0941 34.0941 0 0 1 3.4831-2.9916c.609-.4595 1.2287-.8655 1.87-1.2608a19.0162 19.0162 0 0 1 1.9339-1.0577 24.8748 24.8748 0 0 1 8.5689-2.2117 27.518 27.518 0 0 1 8.28.609 17.7889 17.7889 0 0 1 7.073 3.4831c.4274.3526.812.7159 1.1753 1.0792s.6945.7265 1.015 1.0684c.32.3633.5877.7159.8654 1.0577s.5343.6732.78.983c-.5877.203-1.1967.4167-1.8163.6411s-1.2287.47-1.7843.7052c-1.1112.4808-1.998.8868-2.2651 1.0257-.8975.4487-1.7843.8761-2.6391 1.3035-.844.4167-1.6667.812-2.4894 1.218-1.6347.7693-3.1519 1.4637-4.6691 2.0087a22.2536 22.2536 0 0 1 -9.466 1.4534z" fill="#88d3cc" transform="translate(-.73 -75.5613)"/><path d="m183.4648 296.0364c-.0107-.1175.6945-.3846 1.9659-.812.3206-.1069.6731-.2137 1.0578-.3419.3846-.1175.8227-.2137 1.2714-.3419.8975-.2351 1.9339-.5236 3.0558-.7479.5662-.1176 1.1539-.2458 1.7629-.374s1.2287-.2244 1.8911-.3312c.6624-.1175 1.3142-.2244 2.0087-.31.6838-.0854 1.3889-.16 2.1048-.2564a45.9859 45.9859 0 0 1 9.0817-.0213 30.9948 30.9948 0 0 1 8.3873 2.1368c.1495.0641.2991.1389.4487.203.15.0748.2885.1389.4381.203.2884.1389.5769.2778.8547.4167.5556.2885 1.0684.5984 1.5706.9189a16.44 16.44 0 0 1 1.421.9616c.2244.1709.4381.3312.6411.5021s.406.3419.5983.5022a14.2487 14.2487 0 0 1 1.1005.9723c.3206.3312.63.6517.9189.94.2885.2992.5449.577.7693.8548.2136.2778.4166.5342.5983.7692.6945.94 1.015 1.5065.9188 1.5813-.1175.0855-.609-.3632-1.4637-1.1539-.4381-.3846-.9509-.8654-1.5706-1.3889-.63-.5129-1.3249-1.1112-2.1476-1.6881-.406-.2885-.8227-.5984-1.2821-.8868-.4487-.2885-.94-.5663-1.4317-.8548q-.7533-.4167-1.5706-.8013c-.5556-.2457-1.1325-.4808-1.6988-.7265a33.59 33.59 0 0 0 -8.1095-1.88 51.9169 51.9169 0 0 0 -8.7291-.0534c-.6945.0641-1.3783.1282-2.0407.1923-.6731.0641-1.3142.1389-1.9446.2351-.62.0854-1.25.15-1.8377.2457-.2991.0534-.5876.0962-.8654.1389-.2885.0428-.5663.0855-.8441.1282-1.1111.1923-2.1155.3633-2.9916.5129-.8868.16-1.6668.2885-2.3078.3953-1.2822.2028-2.0194.2882-2.0301.16z" fill="#fff" transform="translate(-.73 -75.5613)"/><path d="m197.9742 315.2149a19.9933 19.9933 0 0 0 -4.21-.3633c-1.25.0962-2.607.15-4.2523.32.9722-.9082 2.0086-1.88 3.0984-2.8634 1.0791-.983 2.2117-1.9766 3.387-2.9168a41.4863 41.4863 0 0 1 3.622-2.6284c.609-.406 1.218-.7479 1.8377-1.09.609-.3312 1.25-.641 1.8377-.8868a16.0612 16.0612 0 0 1 7.4043-1.3248 12.776 12.776 0 0 1 6.4426 2.4681 13.7011 13.7011 0 0 1 4.37 5.8871 15.3339 15.3339 0 0 1 .5343 1.5278c.15.5129.2884.9937.4166 1.4745q.3205 1.49.6091 2.7886c-.62-.1069-1.2822-.2244-1.9446-.3312s-1.3249-.1923-1.9339-.2564c-1.2287-.1282-2.2009-.2137-2.5-.2244-2.0407-.0962-3.9425-.1923-5.7268-.2564-1.7736-.0962-3.44-.15-4.9683-.2885-1.5385-.0961-2.9595-.2778-4.2844-.4487-.3312-.0428-.6517-.1175-.9829-.15-.3206-.0428-.6411-.0962-.951-.15-.6089-.0947-1.2179-.1695-1.8055-.287z" fill="#88d3cc" transform="translate(-.73 -75.5613)"/><path d="m200.8376 310.77a6.631 6.631 0 0 1 1.7843-.5343c.2778-.0534.5876-.1282.9295-.1923.3419-.0534.6945-.0854 1.09-.1282.3953-.032.8227-.0748 1.2715-.1068q.6731-.0321 1.41 0c.4915.0213 1.0257.032 1.5706.0854s1.09.15 1.6775.2351a8.6368 8.6368 0 0 1 .8868.171c.2991.0641.5983.1389.9081.2243q.4648.1122.93.2564c.31.0962.63.203.9509.2992a31.3656 31.3656 0 0 1 7.9278 4.1562 44.3826 44.3826 0 0 1 6.8914 6.3252c.9509 1.1112 1.8591 2.18 2.6284 3.248.3846.5343.78 1.0257 1.1218 1.5279s.6625.9936.9723 1.4531c.63.9188 1.1112 1.7949 1.56 2.5535.2137.3847.4274.7373.5984 1.0685q.24.5129.4487.93c.5235 1.1219.7586 1.7629.6518 1.8164-.2565.1282-1.6668-2.201-4.3165-5.7162-.3312-.438-.6838-.8975-1.0471-1.3676-.3633-.4808-.78-.9509-1.186-1.453-.406-.5129-.844-1.0151-1.2928-1.5279-.4594-.5128-.9295-1.0364-1.421-1.5706a51.6327 51.6327 0 0 0 -6.838-6.1115 34.7741 34.7741 0 0 0 -7.6393-4.1882c-.62-.2137-1.2073-.4274-1.795-.6091-.5876-.1709-1.1539-.32-1.71-.438-.1389-.0321-.2778-.0641-.406-.0962-.1389-.0213-.2671-.0534-.406-.0748-.2671-.0534-.5235-.0961-.78-.1389-.5235-.0748-1.0043-.15-1.4744-.1816a25.6275 25.6275 0 0 0 -4.3913 0c-1.0363.1065-1.5598.1813-1.5064.085z" fill="#fff" transform="translate(-.73 -75.5613)"/><path d="m211.7677 347.4817a75.0334 75.0334 0 0 1 -5.4811-5.5666c-1.7949-1.9339-3.654-3.9639-5.7054-5.8871a85.0854 85.0854 0 0 1 8.5475-1.8591 33.0046 33.0046 0 0 1 4.5622-.3846 22.4084 22.4084 0 0 1 2.2437.0748 16.1917 16.1917 0 0 1 2.18.2778 24.5827 24.5827 0 0 1 8.1843 3.2267 26.27 26.27 0 0 1 6.3465 5.4918 22.2474 22.2474 0 0 1 4.028 7.4683c.374 1.1753.62 2.3186.8441 3.3656.1923 1.0791.3632 2.0835.5449 3.013-1.2394-.31-2.6711-.6731-3.9-.9188-1.2394-.2458-2.2224-.4381-2.5322-.4915a65.48 65.48 0 0 1 -11.0263-2.5322 25.7286 25.7286 0 0 1 -8.8362-5.2781z" fill="#88d3cc" transform="translate(-.73 -75.5613)"/><path d="m214.8234 341.68a5.6892 5.6892 0 0 1 2.0621.5022c.3206.1069.6731.2244 1.0578.3633s.78.31 1.2287.4808c.8654.3633 1.87.7479 2.9275 1.2714.5342.2564 1.09.5236 1.6668.7907.5769.2778 1.1539.609 1.7629.93 1.2287.63 2.4681 1.4 3.7716 2.201a68.5231 68.5231 0 0 1 7.9171 5.8657c1.3035 1.1432 2.5322 2.2971 3.6647 3.4617 1.1326 1.1539 2.1689 2.3078 3.1305 3.44.93 1.1432 1.8271 2.233 2.5536 3.3121.3739.5343.7586 1.0364 1.0791 1.5493s.63 1.0043.9295 1.4637c.6091.93 1.0685 1.8164 1.4745 2.5857.203.3846.3953.7479.5556 1.0791q.2244.5128.4167.9295c.4915 1.1326.7051 1.7737.5876 1.8271-.2564.1175-1.592-2.2438-4.1348-5.8016-.3206-.4381-.6625-.9082-1.015-1.389s-.7586-.9616-1.154-1.4637c-.7692-1.0257-1.6881-2.0515-2.639-3.152a80.3222 80.3222 0 0 0 -6.7632-6.6777 85.8263 85.8263 0 0 0 -7.6714-5.8336c-1.2607-.8121-2.436-1.6027-3.6006-2.2758-.577-.3419-1.1219-.6838-1.6775-.9937-.5449-.2991-1.0791-.5983-1.5812-.8654-4.0174-2.2118-6.6885-3.3764-6.5496-3.6008z" fill="#fff" transform="translate(-.73 -75.5613)"/><path d="m228.3178 384.6312a71.399 71.399 0 0 1 -5.214-5.5345c-.8547-.9509-1.72-1.9338-2.639-2.8954-.9082-.9723-1.8484-1.9339-2.8314-2.8741a84.0837 84.0837 0 0 1 8.58-1.6988 34.5734 34.5734 0 0 1 4.5622-.31 22.0091 22.0091 0 0 1 2.233.1069 17.1957 17.1957 0 0 1 2.1583.31 23.405 23.405 0 0 1 8.056 3.3763 25.2162 25.2162 0 0 1 6.1328 5.6413 22.6675 22.6675 0 0 1 1.3249 1.966 19.853 19.853 0 0 1 1.015 1.9338 23.2125 23.2125 0 0 1 1.3356 3.6968 32.4983 32.4983 0 0 1 .6624 3.387c.1389 1.0791.2457 2.0834.3846 3.013-1.218-.374-2.6283-.8014-3.8464-1.1112s-2.19-.5342-2.5-.609c-2.0514-.4381-3.9639-.8655-5.77-1.3356a44.4249 44.4249 0 0 1 -5.0857-1.6133 26.0212 26.0212 0 0 1 -4.4661-2.2331 28.8718 28.8718 0 0 1 -4.0922-3.2161z" fill="#88d3cc" transform="translate(-.73 -75.5613)"/><path d="m231.6086 379.054c.0641-.0962.78.0962 2.0407.5449.31.1175.6624.2351 1.0364.374.3739.15.7693.3205 1.1966.5128.8441.374 1.8377.7907 2.8634 1.3356.5236.2671 1.0578.5449 1.6241.8334.5662.2991 1.1218.641 1.72.9722s1.1967.7052 1.8057 1.09 1.218.8014 1.8591 1.2181a64.0546 64.0546 0 0 1 7.6073 6.1542c1.2394 1.1966 2.4146 2.4147 3.4617 3.6327q1.5867 1.827 2.9169 3.6113c.8654 1.1966 1.6774 2.34 2.34 3.4617.3419.5556.6838 1.09.983 1.6134.2885.5342.5663 1.0363.8334 1.5278a28.5155 28.5155 0 0 1 1.2928 2.6925c.1709.406.3419.7692.4808 1.1218q.1923.5289.3526.9616c.406 1.1646.5769 1.827.4594 1.87-.2671.0961-1.4317-2.372-3.7075-6.1008-.2885-.4594-.5983-.9509-.9188-1.4531s-.6945-1.0043-1.0471-1.5385c-.7159-1.0685-1.5386-2.1582-2.4254-3.3122a71.6744 71.6744 0 0 0 -6.3571-6.9982q-1.8431-1.7469-3.6968-3.2694c-1.2394-1.0151-2.4681-1.966-3.6648-2.8421-1.218-.8547-2.34-1.6774-3.4831-2.3719-.5663-.3526-1.09-.7159-1.624-1.0364-.5342-.31-1.0471-.62-1.5386-.9082-3.9213-2.2869-6.5493-3.4835-6.4107-3.6972z" fill="#fff" transform="translate(-.73 -75.5613)"/><path d="m332.1806 141.284-27.2986-1.0792 22.1808 18.484a7.8815 7.8815 0 0 0 10.2249 0l22.1808-18.484z" fill="#4779c4" transform="translate(-.73 -75.5613)"/><path d="m420.925 191.1052a4.6264 4.6264 0 1 1 4.6263-4.6263 4.6282 4.6282 0 0 1 -4.6263 4.6263zm0-8.1415a3.5259 3.5259 0 1 0 3.5258 3.5258 3.5293 3.5293 0 0 0 -3.5258-3.5258z" fill="#88d3cc" transform="translate(-.73 -75.5613)"/><path d="m108.9627 262.7866a4.6263 4.6263 0 1 1 4.6263-4.6263 4.6282 4.6282 0 0 1 -4.6263 4.6263zm0-8.1415a3.5259 3.5259 0 1 0 3.5258 3.5259 3.5294 3.5294 0 0 0 -3.5258-3.5259z" fill="#88d3cc" transform="translate(-.73 -75.5613)"/><path d="m30.3364 368.5619a4.6263 4.6263 0 1 1 4.6263-4.6263 4.6282 4.6282 0 0 1 -4.6263 4.6263zm0-8.1415a3.5259 3.5259 0 1 0 3.5258 3.5259 3.5294 3.5294 0 0 0 -3.5258-3.5263z" fill="#88d3cc" transform="translate(-.73 -75.5613)"/><path d="m17.5151 416.3a16.7852 16.7852 0 1 1 16.7849-16.7854 16.8076 16.8076 0 0 1 -16.7849 16.7854zm0-32.47a15.6847 15.6847 0 1 0 15.6849 15.6846 15.7018 15.7018 0 0 0 -15.6849-15.6846z" fill="#88d3cc" transform="translate(-.73 -75.5613)"/><path d="m87.7862 251.3864a9.5091 9.5091 0 1 1 9.5091-9.5091 9.5164 9.5164 0 0 1 -9.5091 9.5091zm0-17.9177a8.4086 8.4086 0 1 0 8.4086 8.4086 8.4175 8.4175 0 0 0 -8.4086-8.4086z" fill="#88d3cc" transform="translate(-.73 -75.5613)"/><path d="m242.5494 125.9519a4.6264 4.6264 0 1 1 4.6263-4.6264 4.6282 4.6282 0 0 1 -4.6263 4.6264zm0-8.1522a3.5259 3.5259 0 1 0 3.5258 3.5258 3.5293 3.5293 0 0 0 -3.5258-3.5255z" fill="#88d3cc" transform="translate(-.73 -75.5613)"/><path d="m429.8785 220.7009a4.0708 4.0708 0 1 1 -4.0708-4.0707 4.07 4.07 0 0 1 4.0708 4.0707z" fill="#88d3cc" transform="translate(-.73 -75.5613)"/><path d="m92.8506 270.4687a3.3442 3.3442 0 1 1 -3.3442-3.3442 3.3423 3.3423 0 0 1 3.3442 3.3442z" fill="#88d3cc" transform="translate(-.73 -75.5613)"/><path d="m241.8122 409.5792a3.3443 3.3443 0 1 1 -3.3443-3.3442 3.3424 3.3424 0 0 1 3.3443 3.3442z" fill="#88d3cc" transform="translate(-.73 -75.5613)"/><path d="m49.4614 380.9024a3.3442 3.3442 0 1 1 -3.3442-3.3442 3.3423 3.3423 0 0 1 3.3442 3.3442z" fill="#88d3cc" transform="translate(-.73 -75.5613)"/><path d="m390.4318 138.0466h-116.4918a13.9762 13.9762 0 0 0 -13.9325 13.9324v260.3248a13.9762 13.9762 0 0 0 13.9325 13.9324h116.481a13.9761 13.9761 0 0 0 13.9324-13.9324v-260.3248a13.9531 13.9531 0 0 0 -13.9216-13.9324z" fill="#4779c4" transform="translate(-.73 -75.5613)"/><path d="m390.4318 143.5384h-116.4918a8.44 8.44 0 0 0 -8.43 8.43v260.3354a8.44 8.44 0 0 0 8.43 8.43h116.481a8.44 8.44 0 0 0 8.43-8.43v-260.3248a8.4266 8.4266 0 0 0 -8.4192-8.4406z" fill="#e7f4f7" transform="translate(-.73 -75.5613)"/><circle cx="331.4506" cy="75.0394" fill="#fcfcfc" r="3.8464"/><path d="m387.43 189.7376h-106.62a5.8093 5.8093 0 0 0 -5.7909 5.7909v67.0979a5.8093 5.8093 0 0 0 5.7909 5.7909h106.62a5.8093 5.8093 0 0 0 5.7909-5.7909v-67.0979a5.8093 5.8093 0 0 0 -5.7909-5.7909z" fill="#b5e0ea" transform="translate(-.73 -75.5613)"/><path d="m386.4786 186.1156h-108.3396a4.9337 4.9337 0 0 0 -4.9254 4.9255v68.8289a4.9337 4.9337 0 0 0 4.9254 4.9255h108.34a4.9338 4.9338 0 0 0 4.9255-4.9255v-68.8289a4.927 4.927 0 0 0 -4.9259-4.9255z" fill="#fff" transform="translate(-.73 -75.5613)"/><path d="m358.3146 218.8525h-20.6529a.8072.8072 0 0 0 -.8014.8013v10.5455a.8071.8071 0 0 0 .8014.8013h20.6529a.8071.8071 0 0 0 .8013-.8013v-10.5455a.8.8 0 0 0 -.8013-.8013z" fill="#ff7bb7" transform="translate(-.73 -75.5613)"/><path d="m292.0894 110.1055h.6411v79.2994h-.6411z" fill="#6c8af4"/><path d="m314.1312 110.1055h.6411v79.2994h-.6411z" fill="#6c8af4"/><path d="m336.1624 110.1055h.6411v79.2994h-.6411z" fill="#6c8af4"/><path d="m358.2043 110.1055h.6411v79.2994h-.6411z" fill="#6c8af4"/><path d="m379.2525 110.1055h.6411v79.2994h-.6411z" fill="#6c8af4"/><path d="m272.1737 116.2063h118.5645v.6411h-118.5645z" fill="#6c8af4"/><path d="m272.1737 129.6579h118.5645v.6411h-118.5645z" fill="#6c8af4"/><path d="m272.1737 142.757h118.5645v.6411h-118.5645z" fill="#6c8af4"/><path d="m272.1737 155.5034h118.5645v.6411h-118.5645z" fill="#6c8af4"/><path d="m272.1737 168.2499h118.5645v.6411h-118.5645z" fill="#6c8af4"/><path d="m272.1737 180.9857h118.5645v.6411h-118.5645z" fill="#6c8af4"/><text fill="#6c8af4" font-family="ArialMT, Arial" font-size="4.1796" transform="translate(294.2104 120.0544)">1</text><text fill="#6c8af4" font-family="ArialMT, Arial" font-size="4.1796" transform="translate(316.7134 120.0544)">2</text><text fill="#6c8af4" font-family="ArialMT, Arial" font-size="4.1796" transform="translate(339.2153 120.0544)">3</text><text fill="#6c8af4" font-family="ArialMT, Arial" font-size="4.1796" transform="translate(360.7632 120.0544)">4</text><text fill="#6c8af4" font-family="ArialMT, Arial" font-size="4.1796" transform="translate(382.0708 120.0544)">5</text><text fill="#6c8af4" font-family="ArialMT, Arial" font-size="4.1796" transform="translate(294.2104 133.9538)">7</text><text fill="#6c8af4" font-family="ArialMT, Arial" font-size="4.1796" transform="translate(274.8442 133.9538)">6</text><text fill="#6c8af4" font-family="ArialMT, Arial" font-size="4.1796" transform="translate(316.7134 133.9538)">8</text><text fill="#6c8af4" font-family="ArialMT, Arial" font-size="4.1796" transform="translate(339.2153 133.9538)">9</text><text fill="#6c8af4" font-family="ArialMT, Arial" font-size="4.1796" transform="translate(360.7632 133.9538)">10</text><text fill="#6c8af4" font-family="ArialMT, Arial" font-size="4.1796" transform="translate(382.0708 133.9538)"><tspan letter-spacing="-.0741em">1</tspan><tspan x="2.0146" y="0">1</tspan></text><text fill="#6c8af4" font-family="ArialMT, Arial" font-size="4.1796" transform="translate(294.2104 147.6565)">13</text><text fill="#6c8af4" font-family="ArialMT, Arial" font-size="4.1796" transform="translate(274.8442 147.6565)">12</text><text fill="#6c8af4" font-family="ArialMT, Arial" font-size="4.1796" transform="translate(316.7134 147.6565)">14</text><text fill="#6c8af4" font-family="ArialMT, Arial" font-size="4.1796" transform="translate(339.2153 147.6565)">15</text><text fill="#6c8af4" font-family="ArialMT, Arial" font-size="4.1796" transform="translate(360.7632 147.6565)">16</text><text fill="#6c8af4" font-family="ArialMT, Arial" font-size="4.1796" transform="translate(382.0708 147.6565)">17</text><text fill="#6c8af4" font-family="ArialMT, Arial" font-size="4.1796" transform="translate(294.2104 159.5534)">19</text><text fill="#6c8af4" font-family="ArialMT, Arial" font-size="4.1796" transform="translate(274.8442 159.5534)">18</text><text fill="#6c8af4" font-family="ArialMT, Arial" font-size="4.1796" transform="translate(316.7134 159.5534)">20</text><text fill="#6c8af4" font-family="ArialMT, Arial" font-size="4.1796" transform="translate(339.2153 159.5534)">21</text><text fill="#6c8af4" font-family="ArialMT, Arial" font-size="4.1796" transform="translate(360.7632 159.5534)">22</text><text fill="#6c8af4" font-family="ArialMT, Arial" font-size="4.1796" transform="translate(382.0708 159.5534)">23</text><text fill="#6c8af4" font-family="ArialMT, Arial" font-size="4.1796" transform="translate(294.2104 173.0935)">25</text><text fill="#6c8af4" font-family="ArialMT, Arial" font-size="4.1796" transform="translate(274.8442 173.0935)">24</text><text fill="#6c8af4" font-family="ArialMT, Arial" font-size="4.1796" transform="translate(316.7134 173.0935)">26</text><text fill="#6c8af4" font-family="ArialMT, Arial" font-size="4.1796" transform="translate(339.2153 173.0935)">27</text><text fill="#6c8af4" font-family="ArialMT, Arial" font-size="4.1796" transform="translate(360.7632 173.0935)">28</text><text fill="#6c8af4" font-family="ArialMT, Arial" font-size="4.1796" transform="translate(382.0708 173.0935)">29</text><text fill="#6c8af4" font-family="ArialMT, Arial" font-size="10.203" transform="translate(312.0757 100.6413)">August</text><g transform="translate(-.73 -75.5613)"><path d="m301.8049 175.3564a.2683.2683 0 0 1 -.2243-.1068l-2.34-2.8207 2.5322-2.5322a.2947.2947 0 0 1 .4167.4167l-2.1476 2.1582 1.998 2.404a.2921.2921 0 0 1 -.0428.4167.2978.2978 0 0 1 -.1922.0641z" fill="#6c8af4"/><path d="m361.9152 175.3564a.2683.2683 0 0 1 -.2244-.1068.3007.3007 0 0 1 .0321-.4167l2.5429-2.1583-2.3933-2.3612a.2947.2947 0 0 1 .4167-.4167l2.842 2.8207-3.0343 2.5749a.29.29 0 0 1 -.1817.0641z" fill="#6c8af4"/><path d="m348.1644 228.6608a1.12 1.12 0 0 1 -.8761-.4061l-2.0728-2.4039a.7805.7805 0 1 1 1.186-1.015l1.7308 1.9979 3.996-6.1008a.7794.7794 0 0 1 1.3035.8548l-4.2845 6.5388a1.1359 1.1359 0 0 1 -.8975.5235.2325.2325 0 0 1 -.0854.0108z" fill="#3884f2"/><path d="m392.8358 289.6792h-121.3a1.63 1.63 0 0 1 -1.624-1.624 1.63 1.63 0 0 1 1.624-1.624h121.3a1.63 1.63 0 0 1 1.624 1.624 1.63 1.63 0 0 1 -1.624 1.624z" fill="#fcfcfc"/><path d="m388.2949 300.2567h-.5556a1.8946 1.8946 0 0 0 -1.8911 1.8912v.5555a1.8909 1.8909 0 0 0 1.4 1.8164v42.7268a.7693.7693 0 1 0 1.5385 0v-42.7266a1.891 1.891 0 0 0 1.4-1.8164v-.5555a1.8947 1.8947 0 0 0 -1.8918-1.8914z" fill="#f47676"/><path d="m388.2949 364.1386h-.5556a1.8946 1.8946 0 0 0 -1.8911 1.8911v.5556a1.8909 1.8909 0 0 0 1.4 1.8163v42.7268a.7693.7693 0 1 0 1.5385 0v-42.7268a1.891 1.891 0 0 0 1.4-1.8163v-.5553a1.8947 1.8947 0 0 0 -1.8918-1.8914z" fill="#f47676"/><path d="m380.3351 312.2019h-37.5022a1.9244 1.9244 0 0 1 -1.9125-1.9125 1.9244 1.9244 0 0 1 1.9125-1.9126h37.5022a1.9245 1.9245 0 0 1 1.9125 1.9126 1.9107 1.9107 0 0 1 -1.9125 1.9125z" fill="#9cb4f7"/><path d="m380.3351 323.3991h-58.6466a1.9243 1.9243 0 0 1 -1.9125-1.9125 1.9243 1.9243 0 0 1 1.9125-1.9125h58.6466a1.9244 1.9244 0 0 1 1.9125 1.9125 1.9107 1.9107 0 0 1 -1.9125 1.9125z" fill="#9cb4f7"/><path d="m380.3351 334.5963h-72.8995a1.9243 1.9243 0 0 1 -1.9125-1.9125 1.9243 1.9243 0 0 1 1.9125-1.9125h72.8995a1.9244 1.9244 0 0 1 1.9125 1.9125 1.9106 1.9106 0 0 1 -1.9125 1.9125z" fill="#9cb4f7"/><path d="m380.3351 345.7935h-29.82a1.9243 1.9243 0 0 1 -1.9125-1.9125 1.9243 1.9243 0 0 1 1.9125-1.9125h29.82a1.9244 1.9244 0 0 1 1.9125 1.9125 1.9106 1.9106 0 0 1 -1.9125 1.9125z" fill="#9cb4f7"/><path d="m380.3351 375.0367h-37.5022a1.9244 1.9244 0 0 1 -1.9125-1.9126 1.9244 1.9244 0 0 1 1.9125-1.9125h37.5022a1.9245 1.9245 0 0 1 1.9125 1.9125 1.9176 1.9176 0 0 1 -1.9125 1.9126z" fill="#9cb4f7"/><path d="m380.3351 386.2339h-58.6466a1.9243 1.9243 0 0 1 -1.9125-1.9125 1.9243 1.9243 0 0 1 1.9125-1.9125h58.6466a1.9244 1.9244 0 0 1 1.9125 1.9125 1.9175 1.9175 0 0 1 -1.9125 1.9125z" fill="#9cb4f7"/><path d="m380.3351 397.4311h-72.8995a1.9243 1.9243 0 0 1 -1.9125-1.9125 1.9243 1.9243 0 0 1 1.9125-1.9125h72.8995a1.9244 1.9244 0 0 1 1.9125 1.9125 1.9175 1.9175 0 0 1 -1.9125 1.9125z" fill="#9cb4f7"/><path d="m381.04 408.6283h-31.23a1.2129 1.2129 0 0 1 -1.2073-1.2073v-1.41a1.2129 1.2129 0 0 1 1.2073-1.2073h31.23a1.213 1.213 0 0 1 1.2074 1.2073v1.41a1.2062 1.2062 0 0 1 -1.2074 1.2073z" fill="#9cb4f7"/><path d="m389.0215 155.2484h-12.7679a.8014.8014 0 0 0 0 1.6027h12.7679a.8014.8014 0 0 0 0-1.6027z" fill="#b3d7e0"/><path d="m389.0215 159.64h-12.7679a.8014.8014 0 0 0 0 1.6027h12.7679a.8014.8014 0 0 0 0-1.6027z" fill="#b3d7e0"/><path d="m389.0215 164.031h-12.7679a.8013.8013 0 0 0 0 1.6026h12.7679a.8013.8013 0 0 0 0-1.6026z" fill="#b3d7e0"/><path d="m280.96 154.8958-7.0624 6.603h2.7352v4.4767h2.6284v-1.827a1.6988 1.6988 0 0 1 3.3976 0v1.827h2.6284v-4.4767h2.7352z" fill="#b3d7e0"/><path d="m216.0949 157.9623h-9.4236a2.259 2.259 0 0 1 -2.2224-2.6284l3.3228-19.734a2.2591 2.2591 0 0 1 2.2224-1.88h9.4236a2.259 2.259 0 0 1 2.2224 2.6284l-3.3229 19.734a2.249 2.249 0 0 1 -2.2223 1.88z" fill="#c9ccdc"/><path d="m206.1905 153.6137c-.2137-.0534.5021-3.8036 1.2928-8.4513.8013-4.6477 1.3783-8.43 1.592-8.4086.203.0214-.0321 3.857-.8441 8.5368-.7907 4.6694-1.8484 8.3659-2.0407 8.3231z" fill="#edeff9"/><path d="m213.1353 137.1491a1.6678 1.6678 0 0 1 -1.56 1.389 1.1152 1.1152 0 0 1 -1.09-1.389 1.6678 1.6678 0 0 1 1.56-1.389 1.1152 1.1152 0 0 1 1.09 1.389z" fill="#4a516b"/><path d="m214.8769 137.1491a.828.828 0 0 1 -.7693.6838.5487.5487 0 0 1 -.5342-.6838.8279.8279 0 0 1 .7692-.6838.55.55 0 0 1 .5343.6838z" fill="#4a516b"/><path d="m213.4131 163.5716a9.2345 9.2345 0 0 1 -1.1966-7.8424c.406-1.3248 1.1325-2.65.94-4.028-.2137-1.5385-1.7309-2.6711-2.6391-3.9211a2.651 2.651 0 0 1 -.5449-1.0792.87.87 0 0 1 .5236-.9829 4.6174 4.6174 0 0 1 -.2564-1.624.9193.9193 0 0 1 .1282-.6091.7027.7027 0 0 1 .62-.2457 2.0391 2.0391 0 0 1 .6624.1816 4.0813 4.0813 0 0 1 -.0748-.9616 1.1159 1.1159 0 0 1 .203-.8227 1.1306 1.1306 0 0 1 1.0791-.31 3.19 3.19 0 0 1 1.0471.5129 2.8544 2.8544 0 0 1 -.171-1.0364.7906.7906 0 0 1 .4808-.7586c.3846-.1282.7693.1816 1.0684.4594 1.3356 1.2607 2.66 2.5108 3.996 3.7716a6.6328 6.6328 0 0 1 1.827 2.3292 5.9759 5.9759 0 0 1 -.0748 3.59c-.438 1.7522-1.047 3.4617-1.3889 5.2247a10.0656 10.0656 0 0 0 .203 5.3422 10.1964 10.1964 0 0 1 -3.4724 3.045 3.2515 3.2515 0 0 1 -1.5386.3846 2.1759 2.1759 0 0 1 -1.4211-.6195z" fill="#ffb088"/><path d="m106.0993 398.3606a71.2678 71.2678 0 0 0 -5.8444 12.1375 45.7238 45.7238 0 0 0 23.6873 15.45c1.3569.3739 3.0664.5662 3.9318-.5343a2.6585 2.6585 0 0 0 -.1069-3.0343 10.085 10.085 0 0 0 -2.3719-2.19 23.4343 23.4343 0 0 1 -8.868-19.093c-3.1198-.9195-7.3081-1.8277-10.4279-2.7359z" fill="#c7cada"/><path d="m169.308 407.2393c-.609 4.2524-1.4744 11.3255-1.2287 15.61 6.3145 1.9659 18.8259 4.1883 28.3563 2.9275 1.389-.1816 3.0451-.6624 3.419-2.0087a2.6645 2.6645 0 0 0 -1.2714-2.7565 9.9233 9.9233 0 0 0 -3.0344-1.1005 23.4516 23.4516 0 0 1 -15.5671-14.1782c-3.2267.3632-7.4363 1.1432-10.6737 1.5064z" fill="#c7cada"/><path d="m137.725 255.6922s-4.8507 48.4109-4.1242 65.72c0 0-19.1143 45.43-29.211 77.8784 0 0 7.9278 7.9278 16.23 9.0176 0 0 29.1363-47.0861 32.0531-65.1747s15.1719-58.3473 15.1719-58.3473 1.7522 47.257.5876 63.0164c-1.1646 15.7488-2.3292 61.2642-2.3292 61.2642s18.6763 4.0814 22.17.5876c0 0 19.6058-111.31 4.2631-162.4345-.0112.0001-52.8347-18.292-54.8113 8.4723z" fill="#2e3e56"/><path d="m140.6525 254.6986c.4915.9295.983 1.87 1.4745 2.7993a10.5992 10.5992 0 0 0 8.1521-6.8594 7.6544 7.6544 0 0 0 -4.7972-3.8143c-2.5109 1.7202-4.0819 4.9358-4.8294 7.8744z" fill="#ffb088"/><path d="m168.464 133.8476a30.2459 30.2459 0 0 1 -.6518 6.0794c-.62 2.201 3.2374 7.8637-1.592 13.4837 0 0-1.7415 2.5963-4.1348 3.0557l.5235 8.0026s-7.7141 3.0451-12.5434.0428l-1.41-36.2628s15.898-5.3315 19.8085 5.5986z" fill="#ffb088"/><path d="m159.1472 159.2444a42.4416 42.4416 0 0 1 -5.3529-6.1222 13.3619 13.3619 0 0 0 8.3018 3.3549l.3312 5.0751a17.46 17.46 0 0 1 -3.2801-2.3078z" fill="#f29d77"/><path d="m160.1622 136.508a8.3667 8.3667 0 0 0 -5.823-.8227.1867.1867 0 0 1 -.0855-.3632 8.7746 8.7746 0 0 1 6.1008.8654.1869.1869 0 0 1 -.1923.3205z" fill="#a86b4c"/><path d="m158.1321 137.6085c.4488.0535.7586.6625.6838 1.357-.0748.7051-.5021 1.2287-.9615 1.1752s-.7586-.6624-.6838-1.3569.5128-1.2287.9615-1.1753z" fill="#a86b4c"/><path d="m167.4382 135.3114a6.046 6.046 0 0 0 -4.0814 1.1112c-.1923.1389-.4487-.1282-.2564-.2671a6.4385 6.4385 0 0 1 4.3485-1.2074c.2458.0214.2351.3954-.0107.3633z" fill="#a86b4c"/><path d="m165.7287 137.3521c.4488.0534.7586.6624.6838 1.3569-.0748.7052-.5021 1.2287-.9616 1.1753-.4487-.0534-.7585-.6624-.6837-1.3569.0854-.7052.5128-1.2287.9615-1.1753z" fill="#a86b4c"/><path d="m158.26 149.4789a4.4392 4.4392 0 0 0 6.0366 1.4958c.2992-.1817.0428-.6624-.2671-.4808a3.864 3.864 0 0 1 -5.2887-1.2821c-.1817-.2992-.6732-.0321-.4808.2671z" fill="#f27766"/><path d="m161.8183 137.459a24.5338 24.5338 0 0 0 .812 5.2139 9.84 9.84 0 0 0 1.0257 2.3292 10.7831 10.7831 0 0 1 .7158 1.1.99.99 0 0 1 .0855.6518c-.0855.31-.3205.406-.63.4273a2.8182 2.8182 0 0 1 -2.4574-.7158c-.1068-.1389-.3419-.0107-.2457.1282a2.5136 2.5136 0 0 0 2.0621.8547 2.0544 2.0544 0 0 0 1.218-.16.9577.9577 0 0 0 .3312-.8975 3.2087 3.2087 0 0 0 -.6731-1.2608 8.4639 8.4639 0 0 1 -.7159-1.2928 12.6 12.6 0 0 1 -.8547-2.9061c-.203-1.1433-.31-2.3079-.406-3.4618-.0107-.1709-.2778-.1816-.2671-.0106z" fill="#f27766"/><path d="m145.1613 137.3094c-.5769-1.3356-1.5385-2.5-1.9232-3.9a5.1918 5.1918 0 0 1 2.1262-5.5773c1.7843-1.1539 4.0921-1.0791 6.09-1.8056 3.0878-1.1326 5.4277-4.1776 8.6971-4.4447 2.9061-.2351 5.5024 1.827 8.3872 2.233 2.3185.32 5.0431-.3312 6.7632 1.2608a4.0355 4.0355 0 0 1 1.1112 3.5472 7.0019 7.0019 0 0 1 -1.6774 3.43 6.1979 6.1979 0 0 1 -4.6584 2.5322c-1.7843-.0428-3.3122-1.186-4.808-2.1583s-3.3122-1.8377-5-1.2714c-1.9552.6624-3.1626 3.0984-5.2353 3.12-1.2394.0107-2.5215-.8975-3.6434-.374-1.1325.5343-1.2287 2.0835-1.1432 3.3336.0855 1.3462.1709 2.6924.2564 4.028.0427.6838-.1923 1.6561-.8761 1.56-.5022-.0748-.6731-.6945-.8868-1.1539a2.4768 2.4768 0 0 0 -3.8464-.5449c.9507-1.0047.7798-2.6288.2669-3.8147z" fill="#f49f42"/><path d="m147.32 140.1728a2.542 2.542 0 0 0 -3.0985 1.1111 2.8521 2.8521 0 0 0 .6838 2.8314 5.7226 5.7226 0 0 0 2.4895 1.7309 3.5053 3.5053 0 0 0 1.87.1923 2.0977 2.0977 0 0 0 1.4852-1.0791c.9929-2.0514-1.753-4.2524-3.43-4.7866z" fill="#ffb088"/><path d="m146.8388 164.2126c-.0641-1.3249.1923-2.8527 1.3141-3.5579 1.4-.8868 3.184 0 4.6905.6945a11.8859 11.8859 0 0 0 8.3124 1.0364c.8227-.2458 1.6027-.62 2.4361-.8013a3.0652 3.0652 0 0 1 2.4681.3632 1.6408 1.6408 0 0 1 .4166 2.2544c8.5582-.9082 16.8386 4.5409 23.3027 10.225s12.084 12.458 19.4883 16.86c1.1218-.4487 1.1752-1.998.8974-3.1732a25.1711 25.1711 0 0 1 -1.0257-3.4618c-.2243-2.5642 2.0408-4.7652 2.1476-7.34.0748-1.7415-.8548-3.3655-1.09-5.0857-.3633-2.65.9188-5.214 2.1689-7.5859-.2885-.9082-.6517-1.7416-.93-2.65a25.2379 25.2379 0 0 1 10.3959-1.6775c.94 2.96 2.19 5.7909 3.13 8.75.7906 2.4895 1.5919 5.0644 1.3676 7.6714-.2351 2.7138-1.5813 5.2994-1.4317 8.0239.16 2.8848 1.9766 5.4811 2.0941 8.3659.0962 2.34-.94 4.5515-1.6454 6.7846-1.0257 3.2267-1.3889 6.6564-2.7138 9.7762s-3.9425 6.0153-7.3188 6.2931c-3.0237.2457-5.77-1.624-8.2163-3.4083q-10.6256-7.7249-21.24-15.439c-1.2821 5.6734 2.03 11.411 1.5385 17.2019a44.1475 44.1475 0 0 0 -.5449 5c.0641 2.2971 1.0578 4.4447 1.7523 6.6243a53.7617 53.7617 0 0 1 1.624 7.4684q1.1539 6.8754 2.3078 13.7614c-5.5665 4.2311-11.5818 8.0133-18.4946 9.05a34.2945 34.2945 0 0 1 -11.1866-.5663 35.4115 35.4115 0 0 1 -9.2847-2.7779c-2.9061-1.4317-11.9344-7.6714-14.8192-12.2657a130.4533 130.4533 0 0 0 -7.2974-65.0464c4.8407-4.3053 9.5311-8.5149 15.3862-11.3677z" fill="#4779c4"/><path d="m157.1385 169.3945c1.9873-.1709 4.53-2.0727 5.9619-3.4617-4.1776 1.421-8.3018.94-12.255-.0748a11.2874 11.2874 0 0 1 -4.0066-1.72v.0855a40.2118 40.2118 0 0 0 -4.199 2.3826 21.6794 21.6794 0 0 0 4.9148 2.03 26.3289 26.3289 0 0 0 9.5839.7584z" fill="#3a6aaf"/><path d="m139.4559 168.465a47.1312 47.1312 0 0 0 -13.3341 14.7765 139.5554 139.5554 0 0 0 -8.6864 18.0566c-2.7138 6.3892-5.47 13.1311-4.7546 20.0332.63 6.026 3.8571 11.4643 7.415 16.3684a112.0583 112.0583 0 0 0 13.1952 15.1612 9.439 9.439 0 0 0 4.4447 2.8313c2.5215.4915 5.0858-1.1112 6.4961-3.2587 2.1155-3.2374 5.1071-5.3315 1.25-10.2143-2.404-3.0343-4.7973-5.4063-7.3188-8.3338s-4.5836-8.056-6.5282-11.4a130.189 130.189 0 0 0 11.8169-46.9472 12.5324 12.5324 0 0 0 -.2778-4.4233c-.4272-1.4212-2.297-2.2332-3.718-2.6499z" fill="#4779c4"/><path d="m138.3126 203.0076c-.203-.0748.8975-3.7289 2.0087-8.2911 1.1219-4.5622 1.8377-8.3017 2.0514-8.27.203.0321-.1816 3.8571-1.3142 8.4514-1.1218 4.6052-2.5535 8.1738-2.7459 8.1097z" fill="#2e5f99"/><path d="m144.734 192.7292c.0961.0214.0427.5983-.2672 1.4745a10.0192 10.0192 0 0 1 -.6731 1.4637 16.1491 16.1491 0 0 1 -1.09 1.6454 20.5846 20.5846 0 0 1 -2.4147 2.5963c-.6731.5983-1.1325.93-1.2073.8547s.2457-.5342.8227-1.2287c.5663-.6944 1.3783-1.624 2.201-2.6817.406-.5342.78-1.0578 1.1-1.5386.31-.4915.5769-.94.7906-1.3248.4067-.78.6311-1.2928.738-1.2608z" fill="#2e5f99"/><path d="m184.2555 198.9261c-.2244-.0534.438-3.1091.235-6.9127-.1709-3.8037-1.1325-6.7846-.9188-6.8594.0961-.0321.4487.6731.8333 1.9018a17.9721 17.9721 0 0 1 .5236 2.19 20.7264 20.7264 0 0 1 .31 2.7352 23.2448 23.2448 0 0 1 -.0427 2.7566 19.9232 19.9232 0 0 1 -.31 2.2223 4.9217 4.9217 0 0 1 -.6304 1.9662z" fill="#2e5f99"/><path d="m185.4094 194.8554c-.15-.16 1.0577-1.4317 1.9125-3.3656.8868-1.9125 1.0363-3.6647 1.2607-3.654.0962 0 .1923.4594.15 1.1966a7.309 7.309 0 0 1 -.203 1.2821 9.0621 9.0621 0 0 1 -.5236 1.5065 8.8048 8.8048 0 0 1 -.7906 1.3783 6.9079 6.9079 0 0 1 -.8334.9937c-.502.5128-.8979.737-.9726.6624z" fill="#2e5f99"/><path d="m177.738 242.1658c-.0534-.0962.5556-.5022 1.4851-1.1966.2351-.171.4915-.3633.7479-.577.2671-.203.5449-.4487.8441-.6838.5769-.5022 1.1966-1.0684 1.8056-1.6988.609-.6411 1.1539-1.2821 1.6241-1.88.235-.2992.4594-.5877.6517-.8655.203-.2778.3846-.5342.5449-.78.6517-.9616 1.0257-1.5813 1.1325-1.5386.0855.0427-.1175.7479-.6731 1.8164-.1389.2671-.2991.5555-.4808.844-.1816.2992-.3953.609-.62.94a18.6189 18.6189 0 0 1 -1.6347 1.9873 18.3715 18.3715 0 0 1 -1.9125 1.72c-.32.2351-.62.4594-.9081.6518-.2885.203-.5663.3632-.8228.5128-1.0467.5877-1.7412.8335-1.7839.748z" fill="#2e5f99"/><path d="m176.8512 245.7771c-.0428-.2137 2.0193-.7692 4.3806-1.8591 2.3719-1.0791 4.1348-2.265 4.2737-2.0941.0641.0855-.31.4915-1.0043 1.0257a15.0879 15.0879 0 0 1 -2.9489 1.7522 16.32 16.32 0 0 1 -3.2587 1.09c-.8762.1708-1.4211.1815-1.4424.0853z" fill="#2e5f99"/><path d="m178.9346 250.6813a6.01 6.01 0 0 1 -1.5813.3205c-1.0257.15-2.5108.3526-4.3485.4915a44.686 44.686 0 0 1 -6.5175.0641 28.7063 28.7063 0 0 1 -7.853-1.6027 22.2643 22.2643 0 0 1 -3.7716-1.7843 20.7432 20.7432 0 0 1 -3.12-2.3185 45.4165 45.4165 0 0 1 -4.434-4.7759c-1.186-1.41-2.1262-2.5642-2.778-3.3763a6.7573 6.7573 0 0 1 -.94-1.3035 6.7263 6.7263 0 0 1 1.1646 1.1112c.7052.7479 1.72 1.8484 2.96 3.216a53.5685 53.5685 0 0 0 4.4874 4.605 20.4666 20.4666 0 0 0 3.0344 2.2009 21.6393 21.6393 0 0 0 3.654 1.71 28.833 28.833 0 0 0 3.9 1.09 32.388 32.388 0 0 0 3.7395.5235 51.0435 51.0435 0 0 0 6.432.0962c1.8377-.0748 3.3229-.1924 4.3486-.2458a7.2543 7.2543 0 0 1 1.6234-.0219z" fill="#2e5f99"/><path d="m170.0452 248.5764c.0321.0855-.6624.4808-1.9232.6731a11.4512 11.4512 0 0 1 -4.9041-.406 20.5822 20.5822 0 0 1 -4.466-1.9659c-1.0792-.62-1.6989-1.0684-1.6561-1.1539.0534-.0962.7693.1816 1.8911.6731a36.1065 36.1065 0 0 0 4.434 1.7095 14.2727 14.2727 0 0 0 4.637.609 13.6387 13.6387 0 0 1 1.9873-.1389z" fill="#2e5f99"/><path d="m171.712 257.8077a14.7472 14.7472 0 0 1 .63 4.2524c.0213.3312.0427.6838.0641 1.0471s.0213.7372.032 1.1325c.0214.78 0 1.6241-.0107 2.5a54.6993 54.6993 0 0 1 -.5128 5.7161 54.1221 54.1221 0 0 1 -1.1432 5.588c-.2351.844-.4488 1.6454-.7052 2.3719-.1175.3633-.2351.7265-.3526 1.0577-.1282.3312-.2457.6625-.3526.9616-.9295 2.4468-1.7095 3.8464-1.8163 3.7823a27.8005 27.8005 0 0 1 1.1966-4.06c.0962-.31.1923-.63.2992-.9723s.1923-.6945.2991-1.0685c.2137-.7372.3954-1.5278.6091-2.3612.3846-1.6775.7586-3.5258 1.0577-5.5025.2778-1.9659.4594-3.8677.577-5.5879.0427-.8654.0961-1.6881.0961-2.4574.0107-.3846.0214-.7586.0214-1.1112v-1.0257a28.8561 28.8561 0 0 1 .0111-4.2629z" fill="#1e2b3d"/><path d="m150.1616 250.66a4.7161 4.7161 0 0 1 -.7479 2.0621 11.92 11.92 0 0 1 -1.3462 1.9979 9.8156 9.8156 0 0 1 -2.233 1.9553 7.9038 7.9038 0 0 1 -2.7887 1.0684 6.9036 6.9036 0 0 1 -2.436.0107 4.8311 4.8311 0 0 1 -1.5492-.5449c-.3312-.1923-.4915-.3419-.47-.3847.0534-.1175.8013.2885 2.0834.3954a7.5548 7.5548 0 0 0 2.233-.16 8.532 8.532 0 0 0 2.5322-1.0257 12.02 12.02 0 0 0 3.5152-3.59c.7264-1.0901 1.1004-1.8274 1.2072-1.7845z" fill="#1e2b3d"/><path d="m222.0461 163.1442c.0427.0855-.3526.406-1.0685.78a11.9637 11.9637 0 0 1 -6.1649 1.186c-.812-.0748-1.2928-.2244-1.2821-.3312.0214-.2244 1.9766-.1389 4.3058-.5983 2.3292-.4275 4.1136-1.2288 4.2097-1.0365z" fill="#3a6aaf"/><path d="m135.8766 250.8629c-.0214-.1175.4915-.2885 1.25-.6518.1923-.0961.3953-.1923.62-.32.2244-.1175.438-.2564.6838-.406a13.3969 13.3969 0 0 0 1.4317-1.09 11.5237 11.5237 0 0 0 1.2287-1.3142c.1709-.2244.3312-.4274.47-.6411a6.5054 6.5054 0 0 0 .374-.5769c.438-.7265.6731-1.218.78-1.186.0855.0214.0427.5877-.2992 1.421a6.1682 6.1682 0 0 1 -.3205.6625 7.1038 7.1038 0 0 1 -.4487.7265 8.8622 8.8622 0 0 1 -1.2822 1.4638 9.6934 9.6934 0 0 1 -1.5812 1.1325 7.09 7.09 0 0 1 -.7693.3633 6.1082 6.1082 0 0 1 -.6945.2457c-.8656.2668-1.4319.2668-1.4426.1707z" fill="#3a6aaf"/><path d="m215.2081 150.8465c-.1069.032-.2885-.3419-.6411-.8548a10.6321 10.6321 0 0 0 -1.624-1.8377c-.7159-.6517-1.4317-1.218-1.9125-1.6774-.4915-.4488-.7479-.7907-.6731-.8655.0641-.0855.438.1069 1.0043.4381a14.149 14.149 0 0 1 2.1048 1.5385 6.18 6.18 0 0 1 1.592 2.1476c.2564.6411.2457 1.0898.1496 1.1112z" fill="#f29e79"/><path d="m216.3406 149.2545c-.1175 0-.1709-.4381-.4273-1.0578a4.2878 4.2878 0 0 0 -.577-1.0043 9.018 9.018 0 0 0 -1.0043-1.0471c-1.6241-1.4317-2.8528-2.7245-2.7032-2.8847.1389-.16 1.5706.8654 3.216 2.3185a6.2347 6.2347 0 0 1 1.0685 1.2073 3.603 3.603 0 0 1 .5128 1.2394c.1496.7693.0107 1.2287-.0855 1.2287z" fill="#f29e79"/><path d="m218.5416 147.7266c-.1069.0214-.2351-.406-.5556-.9936a5.1512 5.1512 0 0 0 -.6624-.9509c-.2885-.3419-.6411-.6838-1.015-1.0791-1.5065-1.5493-2.607-2.9169-2.4574-3.0664s1.4958.9936 3.0023 2.5322a10.3543 10.3543 0 0 1 1.0257 1.1752 4.2147 4.2147 0 0 1 .5983 1.1753c.2244.7265.1603 1.1967.0641 1.2073z" fill="#f29e79"/><path d="m135.1714 156.6588-20.3751-22.0739a33.2832 33.2832 0 1 0 -1.9018 18.0993z" fill="#fcfcfc"/><path d="m81.6962 162.8771a23.3347 23.3347 0 1 1 23.3346-23.3347 23.3647 23.3647 0 0 1 -23.3346 23.3347zm0-44.6928a21.3581 21.3581 0 1 0 21.358 21.3581 21.3858 21.3858 0 0 0 -21.358-21.3581z" fill="#3884f2"/><path d="m85.4677 139.5424a3.7716 3.7716 0 1 1 -3.7715-3.7716 3.7709 3.7709 0 0 1 3.7715 3.7716z" fill="#3884f2"/><path d="m82.5082 141.9143-12.3832-6.4643a.9893.9893 0 0 1 .9188-1.7523l10.3852 5.4277 5.3636-14.6589a.99.99 0 1 1 1.8591.6838z" fill="#3884f2"/><path d="m330.4283 309.691c2.3613-1.3569 1.4531-5.1391-1.2394-5.1391h-97.8689a2.6725 2.6725 0 0 0 -2.5963 2.7352v59.138a2.6657 2.6657 0 0 0 2.5963 2.7349h75.2928a2.6725 2.6725 0 0 0 2.5963-2.7352v-42.93a2.7677 2.7677 0 0 1 1.3569-2.404z" fill="#b3d7e0"/><path d="m327.9709 309.4667a2.5934 2.5934 0 0 0 -1.2394-4.8721h-97.8688a2.5991 2.5991 0 0 0 -2.5963 2.5963v56.0182a2.599 2.599 0 0 0 2.5963 2.5962h75.2928a2.599 2.599 0 0 0 2.5963-2.5962v-40.6648a2.5874 2.5874 0 0 1 1.3569-2.2757z" fill="#fcfcfc"/><path d="m275.8633 319.2536a10.0818 10.0818 0 1 0 -16.6463 7.6606 13.5083 13.5083 0 0 1 2.8313 3.4832 35.3083 35.3083 0 0 1 2.8314 6.3465.9525.9525 0 0 0 1.8057 0 35.54 35.54 0 0 1 2.7459-6.2183 14.0735 14.0735 0 0 1 2.9489-3.6434 10.0933 10.0933 0 0 0 3.4831-7.6286z" fill="#f25353"/><path d="m271.2049 319.0719a5.417 5.417 0 1 1 -5.417-5.417 5.4172 5.4172 0 0 1 5.417 5.417z" fill="#fcfcfc"/><path d="m268.2239 319.0719a2.4361 2.4361 0 1 1 -2.436-2.436 2.4349 2.4349 0 0 1 2.436 2.436z" fill="#f25353"/><path d="m226.2771 363.1984a2.5991 2.5991 0 0 0 2.5963 2.5963h75.2928a2.5991 2.5991 0 0 0 2.5963-2.5963v-22.5868h-80.4854z" fill="#d5e7f7"/><path d="m273.1494 349.5865h-37.6838a1.8376 1.8376 0 0 1 -1.8377-1.8377 1.8376 1.8376 0 0 1 1.8377-1.8377h37.6838a1.8375 1.8375 0 0 1 1.8377 1.8377 1.8376 1.8376 0 0 1 -1.8377 1.8377z" fill="#fcfcfc"/><path d="m298.7278 357.557h-63.946a1.1674 1.1674 0 0 1 -1.1646-1.1646v-1.3569a1.1674 1.1674 0 0 1 1.1646-1.1646h63.946a1.1673 1.1673 0 0 1 1.1646 1.1646v1.3569a1.1673 1.1673 0 0 1 -1.1646 1.1646z" fill="#fcfcfc"/><path d="m339.0934 224.7182-10.4921-2.0727a.7274.7274 0 0 1 -.3953-.6518v-9.1779a.7387.7387 0 0 0 -.7372-.7372h-88.0072a.7387.7387 0 0 0 -.7372.7372v29.98a.7387.7387 0 0 0 .7372.7372h88.0072a.7387.7387 0 0 0 .7372-.7372v-6.7628a.7455.7455 0 0 1 .374-.6411l10.5134-9.3809a.7319.7319 0 0 0 0-1.2928z" fill="#b3d7e0"/><path d="m339.0934 224.44-10.4921-5.5986a.7272.7272 0 0 1 -.3953-.6517v-9.1779a.7387.7387 0 0 0 -.7372-.7372h-88.0072a.7387.7387 0 0 0 -.7372.7372v29.98a.7387.7387 0 0 0 .7372.7373h88.0072a.7387.7387 0 0 0 .7372-.7373v-6.7632a.7453.7453 0 0 1 .374-.641l10.5134-5.8551a.7319.7319 0 0 0 0-1.2925z" fill="#a4e8f7"/><path d="m239.4723 208.275a.7387.7387 0 0 0 -.7372.7372v29.98a.7387.7387 0 0 0 .7372.7373h30.9633v-31.4545z" fill="#fff"/><path d="m252.4324 234.7829a2.9966 2.9966 0 0 1 -2.2971-1.0578l-5.4383-6.2931a2.0454 2.0454 0 1 1 3.0984-2.671l4.53 5.246 10.46-15.9732a2.0448 2.0448 0 0 1 3.419 2.2438l-11.2184 17.1377a3.0161 3.0161 0 0 1 -2.34 1.3676z" fill="#3884f2"/><path d="m309.3587 218.1794h-31.3906a1.0488 1.0488 0 0 1 -1.0471-1.0471 1.0487 1.0487 0 0 1 1.0471-1.047h31.3906a1.0487 1.0487 0 0 1 1.0471 1.047 1.0488 1.0488 0 0 1 -1.0471 1.0471z" fill="#fff"/><path d="m320.2889 225.3593h-42.2674a1.1058 1.1058 0 0 1 -1.1005-1.1 1.1058 1.1058 0 0 1 1.1005-1.1005h42.2674a1.1058 1.1058 0 0 1 1.1005 1.1005 1.1128 1.1128 0 0 1 -1.1005 1.1z" fill="#fff"/><path d="m320.2889 231.93h-42.2674a1.1058 1.1058 0 0 1 -1.1005-1.1005 1.1058 1.1058 0 0 1 1.1005-1.1005h42.2674a1.1058 1.1058 0 0 1 1.1005 1.1005 1.1128 1.1128 0 0 1 -1.1005 1.1005z" fill="#fff"/></g></svg>