<svg xmlns="http://www.w3.org/2000/svg" xmlns:xlink="http://www.w3.org/1999/xlink" width="338" height="295" viewBox="0 0 338 295">
    <defs>
        <path id="prefix__a" d="M236.956.464L87.843 6.198c-7.644.294-14.55 4.645-18.115 11.413L6.415 137.801c-3.857 7.322-3.147 16.212 1.822 22.83l94.089 125.295c4.348 5.792 11.33 8.991 18.557 8.504l133.612-9.015c7.354-.496 13.935-4.74 17.42-11.235l66.459-123.85c3.796-7.074 3.314-15.677-1.248-22.284L255.392 9.69C251.23 3.663 244.275.183 236.956.464z"/>
        <path id="prefix__b" d="M236.956.464L87.843 6.198c-7.644.294-14.55 4.645-18.115 11.413L6.415 137.801c-3.857 7.322-3.147 16.212 1.822 22.83l94.089 125.295c4.348 5.792 11.33 8.991 18.557 8.504l133.612-9.015c7.354-.496 13.935-4.74 17.42-11.235l66.459-123.85c3.796-7.074 3.314-15.677-1.248-22.284L255.392 9.69C251.23 3.663 244.275.183 236.956.464z"/>
        <path id="prefix__d" d="M11.136.349c-.928 3.99-3.39 6.529-7.388 7.614C-2.248 9.59-.636 23.2 5.648 23.705c4.189.338 5.533-.43 4.03-2.303l8.542-7.925L17.127.35h-5.991z"/>
        <path id="prefix__f" d="M14.501 12.694c1.282-3.31-.484 2.676 1.774 1.53 2.258-1.147 6.147 0 6.147 0l.457-2.015c1.119 2.727 2.189 3.78 3.21 3.16 1.533-.929 9.806.93 5.496 6.832-4.31 5.902 0 13.06 4.31 15.713 4.31 2.654 1.974 8.012-1.916 9.96-3.891 1.948-3.996 8.463.595 12.805 3.06 2.894 8.122 4.8 15.186 5.715l11.83-5.715 1.58-22.02c-4.735-.143-6.504-2.126-5.305-5.95 1.198-3.823-.01-7.325-3.625-10.508-5.92-4.443-9.492-8.017-10.717-10.72C41.112 3.3 35.93-.51 27.978.053l-5.099.459C10.795 2.31 7.03 8.04 11.58 17.699c6.826 14.488-12.308 4.71-5.55 25.041 0 3.949-1.947 4.24-3.015 5.134-1.067.894-9.534 15.214 7.715 15.91 11.5.462 16.62-7.306 15.36-23.305-6.174 2.123-9.88-.467-11.12-7.77-.952-5.599-1.75-16.705-.468-20.015z"/>
        <path id="prefix__h" d="M11.655 0l13.904 3.058 1.063 10.838c1.53.079 1.977 1.347 1.34 3.804-1.23 4.744-1.703 16.76-.531 17.596.781.558.781 2.379 0 5.464-.29 1.193-1.491 2.306-3.606 3.339-2.115 1.033-5.503 2.162-10.165 3.388l-3.37-4.753c.175-3.388.351-5.378.53-5.97.173-.575.608-3.292 1.305-8.15l-.17.076C1.79 33.106-1.894 24.365.906 2.466L3.08 0h8.575z"/>
    </defs>
    <g fill="none" fill-rule="evenodd" transform="translate(-3)">
        <use fill="#F7F7F7" xlink:href="#prefix__a"/>
        <mask id="prefix__c" fill="#fff">
            <use xlink:href="#prefix__b"/>
        </mask>
        <use fill="#F7F7F7" xlink:href="#prefix__b"/>
        <g stroke-linejoin="round" stroke-width="1.589" mask="url(#prefix__c)">
            <g>
                <path fill="#00D8A0" stroke="#00D09A" d="M41.113 9.512s7.83 6.98 7.065 8.006c-.765 1.027-8.046-4.116-10.017-3.108-1.541.789-1.541 3.174-3.195 5.137-1.148 1.363-1.955 3.316-4.564 3.316-2.608 0-17.47-7.643-10.481 25.228 0 7.098-2.57 10.647-7.708 10.647C2.523 55.875-1.401 62.88.44 79.752c1.842 16.872 8.335 22.95 19.48 18.234l9.2-2.935c19.93-14.271 31.481-25.894 34.656-34.87 4.762-13.462-5.71-8.85-6.222-13.242-.34-2.928.87-5.932 3.632-9.012 4.492 0 7.285-3.21 8.38-9.627 1.64-9.628-8.38-2.153-8.38-3.795 0-1.095 1.638-4.694 4.913-10.798 3.847-9.84.81-14.382-9.11-13.626-14.88 1.134-15.877 9.431-15.877 9.431z" transform="translate(247.594 192.657)"/>
                <path stroke="#00B083" stroke-linecap="round" d="M54.713 11.123C43.747 28.695 36.75 42.083 33.718 51.287c-3.03 9.204-5.174 23.241-6.43 42.112M32.34 54.072c.127-2.994-.257-6.278-1.15-9.85-.893-3.572-2.663-8.88-5.311-15.922" transform="translate(247.594 192.657)"/>
                <path stroke="#00B083" stroke-linecap="round" d="M57.072 35.823c-7.41 5.085-12.737 9.346-15.981 12.78-3.244 3.436-6.726 8.852-10.444 16.251M53.85 56.857c-7.41 5.085-12.737 9.346-15.981 12.78-3.244 3.436-6.725 8.852-10.444 16.251" transform="translate(247.594 192.657)"/>
                <path stroke="#00B083" stroke-linecap="round" d="M27.719 85.977c-7.325-4.09-12.552-8.125-15.68-12.103-1.777-2.259-3.427-4.915-4.949-7.967" transform="translate(247.594 192.657)"/>
            </g>
        </g>
        <g mask="url(#prefix__c)">
            <g>
                <path fill="#FFB578" d="M40.73 41.194c3.598 9.692.767 16.943-8.493 21.752-9.26 4.81-6.908 10.697 7.058 17.663h5.852l14.125-17.663V38.057l-7.65-4.067-10.893 7.204z" transform="translate(71.003 69.578)"/>
                <g transform="translate(71.003 69.578) translate(0 84.322)">
                    <mask id="prefix__e" fill="#fff">
                        <use xlink:href="#prefix__d"/>
                    </mask>
                    <use fill="#FBAF75" xlink:href="#prefix__d"/>
                    <path fill="#E29E68" fill-opacity=".549" d="M10.034 0.349L18.22 9.293 17.29 0z" mask="url(#prefix__e)"/>
                </g>
                <g>
                    <g>
                        <path fill="#00C793" d="M8.72 0C-2.173 58.528-2.86 91.108 6.66 97.739c9.52 6.63 17.938 10.205 25.256 10.723l8.24-61.183V0H8.72z" transform="translate(71.003 69.578) translate(5.351 152.23) translate(0 1.88)"/>
                        <path fill="#444" fill-opacity=".04" d="M29.301 73.706l5.796-60.285L18.56.127c-2.01 12.752-2.371 23.546-1.081 32.38 1.29 8.836 5.23 22.568 11.822 41.199z" opacity=".986" transform="translate(71.003 69.578) translate(5.351 152.23) translate(0 1.88)"/>
                        <path fill="#444" fill-opacity=".102" d="M18.73.127h20.258l-3.102 13.451c-4.627-2.614-8.132-4.856-10.516-6.725-2.385-1.87-4.598-4.112-6.64-6.726z" transform="translate(71.003 69.578) translate(5.351 152.23) translate(0 1.88)"/>
                    </g>
                    <g>
                        <path fill="#00D8A0" d="M10.813.177C2.39 60.294-1.111 92.577.306 97.029c1.418 4.45 3.118 8.888 5.1 13.313l33.817-6.183v-7.13L43 .177H10.813z" transform="translate(71.003 69.578) translate(5.351 152.23) translate(26.508)"/>
                        <path fill="#444" fill-opacity=".102" d="M14.883.177L42.58 0l-.25 10.392c-5.7-1.055-10.233-2.209-13.6-3.462C25.366 5.677 20.75 3.426 14.884.177z" transform="translate(71.003 69.578) translate(5.351 152.23) translate(26.508)"/>
                    </g>
                </g>
                <g>
                    <path fill="#00D8A0" d="M7.346 26.691H0L7.346 3.046C9.1 1.124 10.699.163 12.14.163c1.443 0 4.904.66 10.384 1.979l8.93 19.203 18.6-17.106C51.294.859 52.869-.5 54.78.163c1.912.663 7.881 3.004 17.91 7.023L68.931 33.22l-2.052 2.866-5.362-2.866-3.097 7.406 6.127 7.503 1.439 48.187c-38.314 2.137-58.73 2.137-61.248 0-3.777-3.206 1.718-6.097 1.718-9.221 0-3.124-1.718-4.427-1.718-7.616 0-3.188 3.42-25.776 3.42-29.68 0-3.272-.271-10.975-.813-23.109z" transform="translate(71.003 69.578) translate(9.365 58.242)"/>
                    <g>
                        <path fill="#FFF" d="M7.676 2.076H.669c-.37 0-.669.3-.669.669v4.933c0 .37.3.669.669.669h6.863c.37 0 .67-.3.67-.67 0-.062-.01-.125-.027-.185-.154-.53-.23-1.037-.23-1.521 0-.63.13-1.666.389-3.108.065-.363-.176-.711-.54-.777-.039-.007-.079-.01-.118-.01z" transform="translate(71.003 69.578) translate(9.365 58.242) translate(14.047 17.733)"/>
                        <path fill="#444" d="M3.397 0H4.734999999999999V2.007H3.397z" transform="translate(71.003 69.578) translate(9.365 58.242) translate(14.047 17.733)"/>
                    </g>
                    <path fill="#444" fill-opacity=".043" d="M52.304 7.308c-11.248 7.269-16.567 13.064-15.96 17.385.913 6.48 21.202 44.222 21.202 49.646 0 3.616-2.185 11.097-6.555 22.443l14.996-.465-1.71-71.624 1.71-13.599-13.683-3.786z" transform="translate(71.003 69.578) translate(9.365 58.242)"/>
                    <path fill="#444" fill-opacity=".04" d="M6.766 85.09c.386 3.378-.077 5.076-.687 5.076 7.883 1.172 14.261 1.874 19.136 2.105 4.98.236 13.383.236 25.21 0 3.577-4.19 4.64-6.286 3.186-6.286-1.09 0-11.42 1.714-28.396 1.38-3.793-.075-9.943-.833-18.449-2.275z" transform="translate(71.003 69.578) translate(9.365 58.242)"/>
                </g>
                <g>
                    <path fill="#F5AC72" d="M49.292 24.62C17.88 23.066 1.637 21.623.567 20.29c-1.07-1.335-.625-2.896 1.337-4.684l6.278 3.466 41.11 4.098v1.45z" transform="translate(71.003 69.578) translate(8.798 87.118)"/>
                    <path fill="#FAAF75" d="M68.048 6.403L50.789 24.619c-30.055-2.348-45.655-4.164-46.8-5.447-1.143-1.284-1.839-4.548-2.085-9.792 26.159 2.365 39.978 2.956 41.459 1.773 1.48-1.182 3.956-3.752 7.426-7.71L53.1 0l14.949 6.403z" transform="translate(71.003 69.578) translate(8.798 87.118)"/>
                </g>
                <g>
                    <path fill="#EFA76F" d="M20.416 26.194l1.215 1.227c-3.12 5.633-6.46 8.831-10.016 9.594-3.558.763-4.126-1.551-1.706-6.943l6.057-4.343 4.45.465z" transform="translate(71.003 69.578) translate(30.334 9.531)"/>
                    <path fill="#FFB377" d="M22.052 25.356c.804-.611 1.07-1.663.797-3.155L20.91 2.274 10.396 0 1.268 1.937c-3.256 20.57-.02 31.346 9.128 29.726 9.147-1.62 10.45-5.391 11.656-6.307z" transform="translate(71.003 69.578) translate(30.334 9.531)"/>
                </g>
                <g transform="translate(71.003 69.578) translate(17.392)">
                    <mask id="prefix__g" fill="#fff">
                        <use xlink:href="#prefix__f"/>
                    </mask>
                    <use fill="#FF6D5F" xlink:href="#prefix__f"/>
                    <path fill="#E85F5E" fill-opacity=".387" d="M21.472 40.877c-1.133 3.6-1.133 5.806 0 6.62 1.698 1.221-4.08 5.823-4.08 8.217s2.19 4.39 3.135 5.512c.63.748 3.18-1.09 7.653-5.512l1.489-10.778-3.432-5.75-4.765 1.69z" mask="url(#prefix__g)"/>
                </g>
            </g>
        </g>
        <g mask="url(#prefix__c)">
            <g>
                <g>
                    <path fill="#AFAFAF" d="M80.153 0L33.476 2.924l1.21 24.405c4.64 17.478 8.697 31.488 12.168 42.031s9.122 26.013 16.95 46.409l30.193-1.516-14.804-86.924L80.153 0z" transform="translate(125.853 42.822) translate(20.416 155.03)"/>
                    <path fill="#AFAFAF" d="M2.18 15.537L0 118.823 30.525 118.823 41.84 41.82 44.476 13.793z" transform="translate(125.853 42.822) translate(20.416 155.03)"/>
                    <path fill="#9D9D9D" d="M31.302 29.735L31.793 110.28 41.068 47.148 34.685 27.329 31.302 25.947z" transform="translate(125.853 42.822) translate(20.416 155.03)"/>
                    <path fill="#A5A5A5" d="M74.978 115.227c-.75 0-12.054-32.4-33.91-97.2l-.925-9.085h-3.958l-1.5 18.387c6.271 21.804 11.15 38 14.636 48.588 3.486 10.587 8.314 23.871 14.483 39.852 8.2-.362 11.924-.542 11.174-.542z" transform="translate(125.853 42.822) translate(20.416 155.03)"/>
                </g>
                <g>
                    <path fill="#FAB075" d="M11.875 38.284c-.589 2.991-2.14 5.061-4.652 6.21-2.513 1.148-2.651-1.175-.415-6.97l5.067.76z" transform="translate(125.853 42.822) translate(92.972 105.752)"/>
                    <path fill="#E0F1FB" d="M10.875 2.116L0 33.88l13.764 6.987C23.027 15.983 27.762 3.247 27.97 2.659c.208-.589.15-1.44-.172-2.554L10.875 2.116z" transform="translate(125.853 42.822) translate(92.972 105.752)"/>
                </g>
                <g>
                    <path fill="#FAAF75" d="M15.86 38.531c.635 2.736 2.419 4.567 5.351 5.493 2.932.927 2.932-2.088 0-9.044L15.86 38.53z" transform="translate(125.853 42.822) translate(0 110.606)"/>
                    <path fill="#E0F1FB" d="M17.567 1.614c-.317 1.133-.317 1.924 0 2.373.317.45 3.56 10.57 9.728 30.363l-13.52 5.796C6.578 22.038 2.312 10.861.98 6.618-.262 2.66.247.383.5.197 1.157-.29 6.847.183 17.567 1.614z" transform="translate(125.853 42.822) translate(0 110.606)"/>
                </g>
                <g>
                    <path fill="#E0F1FB" d="M54.372 1.061c-.926.671-2.155 1.354-3.686 2.047-13.33 2.059-21.744 5.275-25.179 6.32-3.434 1.043-6.557 8.067-8.116 10.37C15.83 22.1 1.13 63.622.377 65.575c-.503 1.302-.503 2.726 0 4.273l17.014-2.706 3.027-5.228v76.803l36.393.97 1.095-22.106.932 22.106 41.962-2.649-.48-78.888c-.127-1.778.538-1.778 1.994 0 1.455 1.779 1.908 3.325 1.356 4.64 11.397 2.85 17.096 2.85 17.096 0 0-4.277-2.527-12.989-10.59-34.734C104.8 13.56 97.319 5.48 87.732 3.817L69.556 0c-.03.8-.03 1.383 0 1.753.05.62.304 3.005.76 7.16-4.91 4.686-8.22 7.104-9.933 7.253-4.434.384-7.316-4.753-7.316-4.753l1.305-10.352z" transform="translate(125.853 42.822) translate(.176 45.078)"/>
                    <path fill="#444" fill-opacity=".028" d="M100.148 72.319l-4.836 15.225-9.094-32.835c-5.775-18.635-8.212-30.282-7.309-34.942.903-4.66 3.844-9.976 8.823-15.95 10.362 1.37 16.732 6.687 19.11 15.95 1.307 5.092 11.243 22.601 9.765 29.436-.808 3.732-6.294 6.066-16.46 7.002V72.32z" transform="translate(125.853 42.822) translate(.176 45.078)"/>
                </g>
                <g>
                    <path stroke="#444" stroke-linecap="square" stroke-width="1.338" d="M41.283 33.023c.42-9.404-.321-16.505-2.227-21.303-1.905-4.797-4.843-8.139-8.815-10.025C14.193-4.303 6.17 5.618 6.17 31.456" transform="translate(125.853 42.822) translate(39.167 44.419)"/>
                    <path fill="#444" stroke="#444" stroke-width=".669" d="M37.267 58.217c-.558.156-1.664 1.687-.405 2.007 1.78.4 2.38-.47 2.19-.743.102-.505-1.228-1.42-1.785-1.264zM32.801 56.88c.558.156 1.485 1.773.405 2.006-.72.156-1.444-.073-2.174-.687.808-.984 1.397-1.424 1.77-1.32z" transform="translate(125.853 42.822) translate(39.167 44.419)"/>
                    <path stroke="#444" stroke-linecap="square" stroke-width=".669" d="M30.54 57.843c-.879-.587.764-18.4 5.74-22.985 3.318-3.057 6.21-2.294 8.677 2.289.172 5.171-.338 9.525-1.531 13.063-1.193 3.537-2.566 6.547-4.12 9.028" transform="translate(125.853 42.822) translate(39.167 44.419)"/>
                    <path fill="#F5F5F5" stroke="#00D8A0" stroke-width="2.14" d="M6.495 30.792L10.55 33.133 10.55 37.816 6.495 40.157 2.44 37.816 2.44 33.133z" transform="translate(125.853 42.822) translate(39.167 44.419) rotate(30 6.495 35.474)"/>
                    <path stroke="#444" stroke-linecap="round" stroke-width="1.338" d="M44.996 39.946c.393-2.725-.841-5.504-3.452-6.353-2.612-.848-5.891.475-6.74 3.087" transform="translate(125.853 42.822) translate(39.167 44.419)"/>
                </g>
                <g transform="translate(125.853 42.822) translate(42.954 13.757)">
                    <mask id="prefix__i" fill="#fff">
                        <use xlink:href="#prefix__h"/>
                    </mask>
                    <use fill="#FBB076" xlink:href="#prefix__h"/>
                    <path fill="#F4AC71" d="M18.15 26.091c-4.34-12.243-6.068-19.968-5.185-23.175.884-3.208 3.697-3.863 8.44-1.966l8.71 12.042c-.97 3.373-2.21 5.885-3.719 7.538-1.51 1.653-4.258 3.507-8.245 5.561z" mask="url(#prefix__i)"/>
                    <path fill="#EBA56E" d="M25.638 21.067c-7.426 7.389-12.227 11.476-14.402 12.262-2.174.786-2.539-.899-1.093-5.055l9.726-5.482 5.769-1.725z" mask="url(#prefix__i)"/>
                </g>
                <path fill="#444" stroke="#313131" stroke-width=".669" d="M67.797 2.725c-3.39-3.71-6.393-3.632-9.011.232-.157.443-2.944.235-5.946 0-10.071-.786-22.002 10.85-10.056 14.46 1.975.256 3.897-.402 5.765-1.974 1.942 3.573 5.526 3.817 10.754.733 1.05-.39-1.48 8.98 3.495 8.232.317-.212-1-6.002 3.382-4.908 4.382 1.093-1.693 6.352-1.405 7.243.293.904 1.088 3.952 6.36 5.652 1.603.517 1.24-2.999 3.722-5.14 5.879-5.074 6.54-14.945.462-18.895-2.13-1.384 2.25-2.68-.742-5.635-1.045-1.032-3.305-1.032-6.78 0z" transform="translate(125.853 42.822)"/>
                <g>
                    <path fill="#00D8A0" d="M17.35 0C11.46 5.147 5.737 5.967.184 2.458c-.73-.611.71 14.941 4.32 46.658L17.35 0z" transform="translate(125.853 42.822) translate(53.142 53.99)"/>
                    <path fill="#01D09A" d="M15.947 5.371c-1.724 8.148-3.222 14.849-4.496 20.102-1.273 5.254-3.571 13.02-6.895 23.3L2.094 27.071 15.947 5.37z" transform="translate(125.853 42.822) translate(53.142 53.99)"/>
                </g>
            </g>
        </g>
    </g>
</svg>
